<svg width="244" height="335" viewBox="0 0 244 335" fill="none" xmlns="http://www.w3.org/2000/svg">
<path d="M169.42 80.0443C169.451 79.2402 169.219 78.448 168.761 77.7869C168.524 77.4842 168.225 77.235 167.885 77.0557C167.545 76.8764 167.17 76.7711 166.787 76.7466C166.372 76.7199 165.959 76.832 165.615 77.0652C165.286 77.3063 165.04 77.6442 164.913 78.0317C164.663 78.7683 164.705 79.5725 165.03 80.2792L164.604 80.0248C166.207 79.8794 167.819 79.8859 169.42 80.0443ZM169.473 80.1082C167.904 80.5357 166.295 80.7942 164.671 80.8794L164.352 80.8932L164.246 80.6249C164.058 80.1714 163.98 79.6801 164.019 79.1908C164.057 78.7016 164.21 78.2283 164.466 77.8096C164.723 77.4213 165.062 77.0941 165.459 76.8507C165.857 76.6073 166.302 76.4537 166.765 76.4006C167.236 76.306 167.722 76.3266 168.184 76.4606C168.664 76.6232 169.074 76.945 169.345 77.3726C169.612 77.7746 169.764 78.2412 169.787 78.7228C169.809 79.2045 169.701 79.6832 169.473 80.1082ZM177.714 79.3959C177.765 78.5814 177.545 77.7729 177.089 77.0961C176.854 76.7844 176.555 76.5272 176.211 76.3424C175.867 76.1576 175.487 76.0494 175.098 76.0253C174.676 76.0011 174.259 76.1188 173.912 76.3595C173.582 76.6073 173.338 76.9527 173.215 77.3469C172.967 78.094 173.022 78.9088 173.368 79.6158L172.944 79.3697C174.531 79.2319 176.128 79.2406 177.714 79.3959ZM177.766 79.4604C176.212 79.8822 174.618 80.1405 173.011 80.231L172.698 80.2464L172.587 79.9847C172.382 79.5428 172.287 79.058 172.309 78.5714C172.331 78.0848 172.47 77.6107 172.715 77.1893C172.959 76.7679 173.301 76.4116 173.712 76.1504C174.123 75.8892 174.591 75.731 175.076 75.6889C175.553 75.5934 176.046 75.6163 176.512 75.7557C176.998 75.922 177.411 76.2519 177.681 76.6891C177.946 77.0995 178.094 77.5745 178.109 78.0629C178.124 78.5513 178.005 79.0345 177.766 79.4604ZM185.947 78.7516C186.07 77.9079 185.894 77.0478 185.451 76.3195C185.226 75.9779 184.924 75.6943 184.569 75.4919C184.213 75.2895 183.815 75.174 183.407 75.1548C182.966 75.1343 182.533 75.2699 182.182 75.5376C181.851 75.8088 181.612 76.1769 181.5 76.5904C181.38 76.9761 181.341 77.3828 181.387 77.7844C181.432 78.186 181.562 78.5736 181.766 78.9223L181.352 78.7047C182.084 78.6396 182.819 78.6146 183.554 78.6297C184.31 78.6429 185.093 78.6839 185.947 78.7516ZM185.996 78.8182C185.321 79.0053 184.576 79.1658 183.803 79.2984C183.014 79.4336 182.219 79.5282 181.42 79.5817L181.13 79.5982L181.006 79.3641C180.757 78.9044 180.626 78.3909 180.623 77.8685C180.62 77.3462 180.745 76.8311 180.988 76.3687C181.237 75.9412 181.585 75.5795 182.002 75.3138C182.419 75.048 182.894 74.8859 183.387 74.8409C183.883 74.7476 184.395 74.7794 184.877 74.9334C185.382 75.112 185.804 75.4693 186.064 75.9377C186.323 76.3763 186.454 76.8786 186.442 77.3877C186.43 77.8968 186.275 78.3924 185.996 78.8182ZM55.5748 139.261C49.4506 139.682 43.6638 142.222 39.2067 146.444C34.8006 150.643 32.0118 156.258 30.4004 162.078C29.6074 165.009 29.0514 168 28.738 171.02C28.5391 172.526 28.5011 174.051 28.3743 175.564C28.3536 177.085 28.2762 178.605 28.3017 180.126C28.4056 186.221 28.935 192.3 29.8859 198.321L30.6407 202.832L31.4771 207.348L33.1601 216.38L36.5261 234.445L43.1075 270.602L42.3115 270.001C45.4435 269.683 48.5999 269.197 51.7133 268.605C54.8312 268.011 57.9227 267.28 60.9619 266.384C64.0001 265.506 66.9599 264.376 69.8108 263.007C72.6576 261.695 75.2184 259.836 77.3473 257.535L77.2422 257.893L74.8948 237.776L72.4804 217.667L69.9965 197.567L67.4706 177.471L67.4292 177.142L67.7586 177.08L98.676 171.314L99.3001 171.198L99.3034 171.838L99.548 216.772L99.6763 261.705L99.3843 261.039C102.009 263.211 104.921 265.009 108.038 266.382C108.83 266.705 109.609 267.06 110.409 267.359L112.835 268.187L115.314 268.834C116.136 269.066 116.989 269.154 117.826 269.323C121.195 269.9 124.629 269.994 128.024 269.604C129.725 269.434 131.412 269.149 133.074 268.748C133.911 268.569 134.736 268.337 135.543 268.052L137.995 267.284L137.389 268.127L138.747 225.99L140.226 183.858L140.267 182.687L141.283 183.329C143.523 184.705 146.118 185.395 148.746 185.312C151.41 185.212 154.005 184.434 156.284 183.05C158.596 181.655 160.678 179.911 162.457 177.879C163.388 176.892 164.195 175.794 165.035 174.723C165.797 173.594 166.616 172.502 167.299 171.318C170.129 166.623 172.515 161.675 174.429 156.537C176.39 151.409 178.023 146.155 179.497 140.857L179.67 140.902C178.308 146.234 176.785 151.532 174.925 156.722C173.115 161.946 170.806 166.983 168.032 171.765C167.357 172.975 166.54 174.1 165.78 175.261C164.94 176.367 164.131 177.5 163.188 178.531C161.368 180.67 159.228 182.515 156.843 183.998C154.417 185.515 151.643 186.388 148.785 186.533C147.35 186.597 145.913 186.451 144.52 186.1C143.104 185.758 141.75 185.193 140.51 184.427L141.567 183.899L140.467 226.043L139.246 268.183L139.226 268.841L138.64 269.026L136.086 269.835C135.243 270.132 134.383 270.375 133.509 270.565C131.77 270.987 130.004 271.29 128.224 271.471C124.66 271.886 121.055 271.794 117.516 271.196C110.395 270.024 103.714 266.978 98.1573 262.372L97.8641 262.122L97.8651 261.705L97.9934 216.772L98.2378 171.839L98.8652 172.363L67.8841 177.776L68.1719 177.385L70.5893 197.494L73.0486 217.597L75.5776 237.692L78.1736 257.778L78.1995 257.979L78.0683 258.136C75.8863 260.573 73.2446 262.555 70.2948 263.969C67.4061 265.408 64.4024 266.603 61.3148 267.542C58.2415 268.495 55.1212 269.278 51.9752 269.923C48.8242 270.567 45.6703 271.101 42.453 271.469L41.7822 271.546L41.6567 270.868L34.9714 234.729L31.704 216.646L30.0704 207.604L29.2583 203.081L28.5218 198.527C27.5872 192.438 27.115 186.287 27.1093 180.127C27.1044 178.586 27.2028 177.045 27.2451 175.505C27.3937 173.968 27.4538 172.426 27.6759 170.897C28.0364 167.827 28.6433 164.791 29.4907 161.818C31.1898 155.896 34.198 150.195 38.8015 146.009C43.4164 141.823 49.3434 139.374 55.5659 139.082L55.5748 139.261Z" fill="black"/>
<path d="M100.245 138.168C102.095 138.541 103.924 139.003 105.752 139.474C107.574 139.964 109.384 140.501 111.18 141.083C112.982 141.65 114.756 142.295 116.531 142.942C118.299 143.614 120.05 144.303 121.796 145.066L121.211 145.123C124.293 143.109 127.722 141.684 131.323 140.922C133.091 140.509 134.88 140.193 136.683 139.974C138.483 139.775 140.284 139.605 142.09 139.56C140.31 139.868 138.532 140.152 136.776 140.54C135.017 140.902 133.276 141.326 131.556 141.812C128.125 142.709 124.863 144.156 121.895 146.096L121.62 146.288L121.31 146.153C117.889 144.662 114.38 143.298 110.871 141.972C109.111 141.317 107.349 140.662 105.575 140.041C103.813 139.378 102.022 138.806 100.245 138.168Z" fill="black"/>
<path d="M98.7707 171.839C99.2086 168.743 100.012 165.709 101.163 162.803C102.29 159.861 103.794 157.078 105.638 154.524C106.578 153.249 107.624 152.055 108.765 150.957C109.923 149.87 111.192 148.907 112.551 148.084C113.921 147.286 115.384 146.662 116.908 146.225C118.424 145.827 119.985 145.62 121.553 145.609C120.029 145.848 118.534 146.241 117.09 146.782C115.673 147.336 114.318 148.037 113.047 148.873C110.548 150.606 108.366 152.757 106.599 155.232C104.804 157.712 103.269 160.37 102.018 163.165C100.736 165.977 99.6508 168.876 98.7707 171.839ZM67.8212 177.428C67.4242 176.824 67.0936 176.179 66.835 175.504C66.5715 174.849 66.3492 174.178 66.1694 173.495C65.9887 172.813 65.8515 172.12 65.7587 171.42C65.6512 170.705 65.6221 169.98 65.6719 169.259C66.0702 169.862 66.4014 170.507 66.6598 171.182C66.9234 171.837 67.1452 172.509 67.3238 173.192C67.5032 173.874 67.6398 174.568 67.7327 175.268C67.8398 175.983 67.8695 176.707 67.8212 177.428ZM57.0163 81.1232C56.033 76.4587 55.8819 71.6571 56.5697 66.9399C56.9223 64.5661 57.548 62.2411 58.4344 60.0111C59.3166 57.7597 60.5694 55.672 62.1409 53.8345C63.7202 52.0056 65.6008 50.4608 67.7013 49.2668C68.7908 48.7414 69.9427 48.3566 71.1293 48.1219C72.3101 47.855 73.531 47.8163 74.7263 48.0079C75.9283 48.2212 77.0494 48.7584 77.9688 49.5617C78.4054 49.982 78.7895 50.4536 79.1128 50.9663C79.27 51.2239 79.4367 51.4776 79.5861 51.7395L79.9306 52.573C80.1702 53.1328 80.3696 53.6799 80.5707 54.2267C80.7815 54.7698 81.0197 55.3018 81.2844 55.8207C81.7942 56.8549 82.4526 57.8089 83.2385 58.6525C83.9859 59.4832 84.9473 60.0923 86.0176 60.413C87.0762 60.6739 88.193 60.5484 89.1673 60.0591C90.1684 59.5643 91.0622 58.877 91.7976 58.0365C92.1999 57.6421 92.5167 57.1554 92.8836 56.7232C93.2462 56.223 93.6458 55.7507 94.0791 55.3103C94.9604 54.4058 96.0197 53.694 97.19 53.2199C98.4165 52.6646 99.8089 52.6 101.081 53.0391C102.311 53.5751 103.301 54.5433 103.865 55.7605C104.427 56.8644 104.834 58.0404 105.076 59.2553C105.516 61.6207 105.72 64.0239 105.686 66.4297L105.578 73.5095C105.483 78.2293 105.368 82.9492 105.171 87.669H105.051C104.854 82.9492 104.739 78.2293 104.644 73.5095L104.536 66.4297C104.494 65.2566 104.399 64.1099 104.343 62.9498C104.316 62.372 104.252 61.7966 104.151 61.227C104.082 60.6511 103.948 60.0946 103.833 59.533C103.61 58.4312 103.243 57.3637 102.741 56.3583C102.313 55.4098 101.563 54.6439 100.623 54.1966C99.6427 53.8534 98.568 53.8988 97.6197 54.3233C96.589 54.7214 95.6524 55.3295 94.8691 56.1088C94.4679 56.5031 94.0969 56.927 93.7593 57.377C93.3857 57.8608 92.9855 58.3235 92.5607 58.763C91.7089 59.6755 90.6854 60.4107 89.5488 60.9264C88.3731 61.4728 87.038 61.5692 85.796 61.1973C84.6088 60.7901 83.5572 60.0626 82.7572 59.0951C81.9672 58.1786 81.3154 57.1514 80.8226 56.0461C80.3091 54.9706 79.9823 53.7895 79.5403 52.7281L79.2214 51.9207C79.0823 51.6696 78.9269 51.4271 78.7809 51.1793C78.4825 50.6893 78.1259 50.2372 77.7191 49.8327C76.8574 49.0724 75.7978 48.5721 74.6633 48.39C72.3522 48.1716 70.0306 48.6815 68.0235 49.8483C66.0728 51.0938 64.3431 52.6556 62.9054 54.4697C61.4621 56.2738 60.2829 58.2743 59.4033 60.4109C58.5048 62.5553 57.8572 64.7965 57.4735 67.0897C57.0615 69.3924 56.835 71.7244 56.796 74.0632C56.74 76.4139 56.8528 78.7655 57.1334 81.1L57.0163 81.1232ZM49.2537 104.191C49.2579 107.636 49.3554 111.074 49.5463 114.506C49.7707 117.932 50.0253 121.357 50.5831 124.732C50.8491 126.421 51.1691 128.097 51.5634 129.752C51.9346 131.409 52.4388 133.033 53.0712 134.608C53.6767 136.18 54.5654 137.627 55.6931 138.878C56.826 140.128 58.4057 140.881 60.09 140.975L60.1107 140.976L60.1348 140.982C61.9445 141.428 63.8037 141.64 65.6672 141.614C67.5269 141.619 69.3775 141.356 71.1621 140.833C72.0481 140.578 72.9086 140.242 73.7327 139.829C74.1486 139.635 74.5501 139.412 74.9342 139.162L76.152 138.435C77.851 137.38 79.8628 136.947 81.8452 137.208C83.8171 137.537 85.6466 138.445 87.1005 139.818C87.4729 140.154 87.8185 140.518 88.1339 140.909C88.4043 141.241 88.7079 141.546 89.0399 141.817C89.6893 142.365 90.4505 142.765 91.2703 142.988C92.0842 143.159 92.927 143.136 93.7304 142.921C94.1339 142.785 94.5296 142.627 94.9159 142.448C95.2838 142.212 95.6665 142.005 96.0258 141.752C97.4467 140.627 98.6993 139.303 99.7456 137.823L99.7777 137.781L99.8163 137.74C100.092 137.421 100.339 137.078 100.554 136.715C100.793 136.336 101.002 135.927 101.209 135.52C101.611 134.687 101.96 133.83 102.255 132.954C102.849 131.18 103.324 129.368 103.676 127.531C103.875 126.613 104.006 125.68 104.173 124.753C104.294 123.819 104.433 122.886 104.538 121.949C104.633 121.01 104.749 120.072 104.83 119.13L105.051 116.3L105.171 116.303L105.175 119.148C105.159 120.097 105.112 121.045 105.081 121.995C105.024 122.944 104.933 123.891 104.86 124.84C104.74 125.784 104.656 126.734 104.502 127.676C104.226 129.573 103.805 131.446 103.244 133.28C102.964 134.207 102.627 135.117 102.233 136.002C102.025 136.445 101.817 136.888 101.564 137.318C101.313 137.78 101.01 138.211 100.66 138.603L100.731 138.52C99.6327 140.131 98.3004 141.569 96.7778 142.786C96.3711 143.072 95.9258 143.317 95.4999 143.582C95.0364 143.799 94.5596 143.988 94.0725 144.146C93.0565 144.424 91.9868 144.441 90.9624 144.196C89.9669 143.911 89.0462 143.411 88.266 142.73C87.8765 142.399 87.522 142.03 87.208 141.626C86.938 141.282 86.6417 140.958 86.3218 140.659C85.0434 139.417 83.4332 138.57 81.685 138.221C79.9171 137.946 78.1082 138.277 76.5519 139.16L75.317 139.819C74.9021 140.062 74.4706 140.276 74.0257 140.458C73.1507 140.847 72.2432 141.157 71.3136 141.386C67.601 142.245 63.74 142.233 60.0329 141.351L60.0773 141.358C58.2819 141.282 56.5791 140.54 55.3009 139.277C54.049 138.027 53.0389 136.557 52.3216 134.94C51.5783 133.355 50.989 131.703 50.5619 130.005C50.119 128.322 49.7787 126.614 49.5427 124.889C49.0644 121.458 48.8008 118 48.7537 114.535C48.686 111.08 48.8131 107.625 49.1345 104.184L49.2537 104.191Z" fill="black"/>
<path d="M133.875 131.563C133.635 131.117 133.325 130.713 132.956 130.366C132.602 130.004 132.23 129.661 131.849 129.329C131.086 128.664 130.294 128.032 129.49 127.419C127.886 126.188 126.235 125.011 124.533 123.926C123.703 123.371 122.824 122.892 121.907 122.495C120.978 122.127 120.017 121.808 119.054 121.502C117.128 120.888 115.182 120.324 113.234 119.768L107.375 118.101C106.867 117.933 106.387 117.69 105.951 117.379C105.541 117.062 105.15 116.72 104.782 116.354L102.556 114.282L100.347 112.192L99.2417 111.147C98.8473 110.804 98.5015 110.41 98.2139 109.974C97.9273 109.531 97.7236 109.04 97.613 108.524C97.5357 108.263 97.5139 107.988 97.549 107.718C97.5842 107.447 97.6756 107.188 97.8172 106.955C98.0149 106.769 98.257 106.637 98.5204 106.572C98.7837 106.507 99.0593 106.511 99.3208 106.583C99.8245 106.676 100.317 106.82 100.792 107.013L100.736 107.069C100.538 106.473 100.393 105.86 100.305 105.238C100.421 105.852 100.593 106.455 100.817 107.038L100.85 107.124L100.761 107.095C100.288 106.927 99.7984 106.807 99.3007 106.739C99.0711 106.684 98.8312 106.687 98.6033 106.75C98.3755 106.812 98.1669 106.93 97.997 107.094C97.8889 107.303 97.8249 107.532 97.8088 107.767C97.7928 108.002 97.8251 108.237 97.9038 108.459C98.019 108.934 98.2197 109.385 98.4961 109.788C98.7785 110.193 99.1153 110.556 99.497 110.869L100.629 111.885L102.892 113.917L105.14 115.967C105.494 116.313 105.869 116.637 106.262 116.938C106.656 117.213 107.089 117.428 107.547 117.575C109.475 118.11 111.456 118.632 113.397 119.203C115.344 119.776 117.288 120.357 119.22 120.991C120.186 121.308 121.148 121.636 122.101 122.023C123.042 122.442 123.938 122.954 124.776 123.553C126.463 124.696 128.092 125.912 129.664 127.201C130.443 127.853 131.208 128.523 131.943 129.226C132.31 129.577 132.668 129.939 133.007 130.318C133.361 130.684 133.654 131.104 133.875 131.563ZM135.523 100.389C135.633 101.502 135.651 102.623 135.576 103.739C135.544 104.306 135.469 104.869 135.353 105.424C135.293 105.714 135.2 105.995 135.076 106.264C134.95 106.587 134.717 106.857 134.415 107.028L134.543 106.613C135.555 108.098 136.741 109.456 138.076 110.658C138.731 111.259 139.482 111.746 140.297 112.098C141.119 112.468 142.051 112.509 142.902 112.214C142.488 112.434 142.033 112.565 141.566 112.6C141.098 112.634 140.629 112.571 140.187 112.414C139.297 112.115 138.469 111.656 137.743 111.06C136.312 109.878 135.072 108.482 134.068 106.921L133.893 106.659L134.195 106.506C134.551 106.193 134.789 105.766 134.868 105.298C135.018 104.774 135.129 104.24 135.2 103.699C135.349 102.608 135.45 101.501 135.523 100.389Z" fill="black"/>
<path d="M107.511 115.582C107.387 115.036 107.401 114.468 107.554 113.929C107.636 113.649 107.773 113.389 107.957 113.163C108.15 112.937 108.386 112.751 108.651 112.617L108.63 112.628C108.812 112.468 108.942 112.256 109.004 112.021C109.06 111.756 109.079 111.485 109.062 111.215C109.072 110.737 109.203 110.268 109.444 109.854C109.684 109.44 110.026 109.094 110.437 108.848C110.695 108.704 110.961 108.574 111.233 108.458C111.7 108.249 112.08 107.813 112.03 107.483L112.038 107.51C111.966 107.129 112.04 106.735 112.246 106.407C112.41 106.123 112.61 105.861 112.842 105.629C113.289 105.198 113.778 104.812 114.301 104.478C114.779 104.14 115.176 103.7 115.461 103.189C115.754 102.665 115.856 102.055 115.75 101.464C115.957 102.06 115.935 102.712 115.687 103.292C115.439 103.879 115.05 104.395 114.554 104.794C114.082 105.157 113.638 105.555 113.226 105.986C113.035 106.191 112.871 106.421 112.74 106.669C112.631 106.866 112.577 107.09 112.584 107.315L112.592 107.343C112.622 107.531 112.609 107.723 112.555 107.905C112.501 108.088 112.406 108.256 112.279 108.397C112.065 108.649 111.799 108.85 111.499 108.988C111.24 109.094 110.986 109.214 110.739 109.346C110.403 109.544 110.12 109.821 109.916 110.154C109.711 110.486 109.59 110.864 109.564 111.253C109.588 111.574 109.533 111.895 109.405 112.19C109.277 112.485 109.079 112.745 108.829 112.946L108.821 112.952L108.806 112.958C108.576 113.055 108.367 113.196 108.19 113.373C108.013 113.558 107.869 113.772 107.764 114.006C107.564 114.506 107.478 115.045 107.511 115.582ZM100.777 107.054C101.829 107.785 102.79 108.639 103.642 109.596C104.073 110.071 104.473 110.574 104.838 111.102C105.232 111.622 105.508 112.221 105.648 112.859C105.305 112.332 104.911 111.84 104.471 111.39L103.199 109.995C102.335 109.063 101.527 108.081 100.777 107.054ZM103.857 100.891C104.952 101.818 105.933 102.872 106.779 104.031C107.206 104.609 107.593 105.217 107.937 105.85C108.308 106.479 108.53 107.185 108.586 107.914C108.313 107.266 107.961 106.654 107.538 106.092L106.298 104.385C105.465 103.246 104.616 102.115 103.857 100.891ZM105.111 94.728C106.488 95.7985 107.754 97.0048 108.889 98.3286C109.463 98.9881 109.997 99.6808 110.489 100.403C111.003 101.118 111.398 101.912 111.657 102.754C111.196 102.026 110.68 101.333 110.115 100.682C109.561 100.025 109.008 99.3666 108.438 98.7192C107.314 97.4113 106.172 96.1173 105.111 94.728ZM129.693 127.405C129.715 128.188 129.809 128.967 129.973 129.732C130.103 130.488 130.398 131.205 130.838 131.833C131.051 132.118 131.355 132.322 131.7 132.411C132.045 132.5 132.409 132.469 132.734 132.323C133.426 132.029 134.058 131.608 134.596 131.082C135.738 130.049 136.714 128.847 137.491 127.518C138.287 126.19 138.98 124.803 139.565 123.369C140.771 120.517 141.63 117.53 142.124 114.472C142.235 113.724 142.29 112.968 142.288 112.211C142.318 111.535 142.184 110.863 141.897 110.251C141.845 110.17 141.773 110.104 141.689 110.058C141.605 110.012 141.51 109.988 141.414 109.989C141.119 110.045 140.838 110.157 140.586 110.318C139.976 110.724 139.411 111.194 138.902 111.721L138.865 111.756C138.777 111.838 138.667 111.89 138.548 111.907C138.43 111.924 138.309 111.903 138.203 111.849C138.096 111.794 138.009 111.708 137.953 111.602C137.897 111.497 137.875 111.376 137.891 111.257C137.997 110.311 138.315 109.401 138.822 108.595C139.098 108.167 139.466 107.806 139.9 107.539C140.333 107.272 140.821 107.105 141.328 107.051C142.279 106.994 143.228 107.188 144.08 107.613C144.474 107.825 144.893 108.005 145.263 108.246L146.364 108.975L146.309 108.94C148.139 109.906 150.039 110.738 151.991 111.427C153.909 112.164 155.943 112.553 157.997 112.577L158.748 112.521L159.555 112.443C160.09 112.405 160.628 112.4 161.164 112.425C162.227 112.48 163.283 112.621 164.323 112.846C166.39 113.273 168.407 113.914 170.342 114.758C168.36 114.077 166.322 113.575 164.251 113.258C163.225 113.1 162.189 113.022 161.151 113.027C160.637 113.02 160.124 113.044 159.614 113.098L158.855 113.199L158.038 113.291C155.884 113.349 153.736 113.02 151.697 112.321C149.663 111.681 147.69 110.861 145.801 109.871L145.789 109.864L145.745 109.836L144.71 109.169C144.364 108.949 143.993 108.8 143.637 108.61C142.959 108.277 142.206 108.123 141.451 108.165C141.11 108.205 140.782 108.321 140.493 108.506C140.204 108.69 139.961 108.939 139.782 109.232C139.393 109.88 139.15 110.606 139.068 111.358L138.057 110.894C138.63 110.282 139.28 109.747 139.989 109.302C140.403 109.046 140.868 108.884 141.351 108.826C141.647 108.819 141.94 108.887 142.203 109.024C142.465 109.161 142.688 109.363 142.852 109.61C143.266 110.409 143.458 111.303 143.41 112.201C143.404 113.015 143.336 113.826 143.207 114.63C142.686 117.777 141.749 120.841 140.422 123.742C139.768 125.194 139.005 126.594 138.138 127.929C137.277 129.285 136.214 130.502 134.986 131.536C134.365 132.074 133.649 132.49 132.875 132.762C132.46 132.899 132.015 132.91 131.594 132.793C131.181 132.658 130.825 132.389 130.581 132.029C130.152 131.343 129.882 130.569 129.792 129.765C129.687 128.983 129.654 128.193 129.693 127.405ZM128.878 126.768C127.899 144.469 116.848 143.675 116.848 143.675C116.848 143.675 102.287 145.221 96.6572 142.08L100.239 138.174C100.239 138.174 104.717 133.785 105.111 116.299L105.589 116.741C106.189 117.295 106.914 117.696 107.702 117.911C111.04 118.825 120.401 121.423 122.628 122.534C124.813 123.776 126.899 125.186 128.866 126.75L128.878 126.768Z" fill="black"/>
<path d="M135.523 100.389L158.091 97.5942L163.965 101.464L191.189 99.5291V94.7276C191.189 94.7276 197.207 93.2227 196.921 87.6687C196.935 86.9577 196.803 86.2513 196.532 85.5937C196.262 84.9361 195.858 84.3415 195.347 83.8471C194.836 83.3527 194.228 82.9691 193.562 82.7204C192.896 82.4716 192.186 82.363 191.476 82.4014L191.046 78.3882L163.535 80.5381L157.804 84.4079L86.5198 90.2844C86.5198 90.2844 84.5139 79.1048 80.072 91.5027C80.072 91.5027 76.2882 103.256 80.7951 109.956C80.7951 109.956 82.7228 113.289 85.5884 106.696L100.305 105.237" stroke="black" stroke-width="0.699" stroke-miterlimit="10"/>
<path d="M62.9156 131.164C63.1934 130.627 63.5406 130.128 63.9483 129.682C65.1526 128.322 68.5533 123.825 69.4331 115.582C70.5078 105.513 76.3578 110.243 77.0865 111.426C77.8153 112.608 79.8571 121.638 86.6273 108.523C86.6273 108.523 89.1599 124.779 66.7242 133.337C66.0708 133.592 65.3837 133.751 64.6846 133.808C63.3421 133.906 61.6987 133.603 62.9156 131.164ZM129.872 129.687C130.104 130.805 130.621 131.844 131.374 132.704C131.72 133.152 132.105 133.569 132.524 133.95C133.354 134.722 134.258 135.409 135.223 136.001C135.692 136.319 136.183 136.604 136.691 136.854L138.205 137.626L139.773 138.285C144.013 139.927 148.418 141.106 152.911 141.804C155.164 142.133 157.402 142.548 159.674 142.744L163.069 143.111C164.181 143.207 165.323 143.234 166.451 143.244C168.706 143.276 170.959 143.116 173.187 142.768C174.283 142.596 175.363 142.339 176.419 141.998C177.429 141.661 178.368 141.142 179.191 140.466L179.047 140.687L183.181 129.311C184.546 125.514 185.993 121.746 187.395 117.963L187.377 118.148C186.953 115.122 186.517 112.098 186.128 109.066C185.73 106.036 185.319 103.008 184.952 99.9727C185.518 102.977 186.04 105.988 186.575 108.997C187.119 112.005 187.616 115.019 188.124 118.033L188.139 118.123L188.106 118.218C186.786 122.031 185.51 125.86 184.153 129.659L180.12 141.072L180.071 141.211L179.975 141.294C178.047 142.968 175.661 143.558 173.378 143.939C171.082 144.279 168.761 144.423 166.441 144.37C165.283 144.349 164.136 144.313 162.971 144.202L159.549 143.802C157.263 143.581 155.001 143.152 152.734 142.786C148.202 141.957 143.773 140.642 139.524 138.863C139 138.622 138.468 138.399 137.952 138.142L136.445 137.288C134.937 136.432 133.553 135.374 132.331 134.144C131.922 133.737 131.549 133.295 131.216 132.823C130.503 131.912 130.04 130.831 129.872 129.687Z" fill="black"/>
<path d="M191.48 82.4048L191.05 78.3856L163.536 80.5358L157.806 84.4062L131.64 86.5647C131.648 86.5564 135.095 64.9881 129.688 58.3224C124.29 51.6568 101.86 54.204 101.86 54.204C102.69 55.138 103.371 56.1954 103.877 57.3383C104.553 58.8711 104.907 60.526 104.919 62.2011C104.985 62.8048 105.035 63.4416 105.068 64.1115C105.101 64.7566 105.109 65.3934 105.109 66.0301V87.6894C107.316 87.4 109.524 87.1849 111.731 86.9699C113.939 86.7631 116.146 86.606 118.354 86.4158C120.569 86.2752 122.777 86.1098 124.992 85.994C127.208 85.8782 129.424 85.779 131.64 85.7377C129.44 86.0271 127.233 86.2421 125.026 86.4572C122.818 86.664 120.611 86.821 118.395 87.0112C116.187 87.1519 113.972 87.3172 111.764 87.4247C109.549 87.5405 107.333 87.648 105.109 87.6894V88.5164L131.582 86.573L86.5235 90.2862C86.5235 90.2862 84.5146 79.1051 80.0748 91.5019C80.0748 91.5019 76.2883 103.254 80.7942 109.952C80.7942 109.952 82.7204 113.285 85.5893 106.694L100.305 105.238C99.9914 103.32 100.181 100.607 103.861 100.888C103.861 100.888 100.777 96.0504 105.109 94.7272C105.109 94.7272 101.992 90.0711 104.505 88.9961C107.01 87.921 108.656 91.0718 109.879 92.1469C111.095 93.222 116.683 101.178 122.843 101.252L135.525 100.392L158.087 97.5969L163.965 101.467L191.19 99.5321V94.7272C191.19 94.7272 197.209 93.222 196.92 87.6729C196.935 86.962 196.804 86.2557 196.533 85.5981C196.263 84.9405 195.86 84.3458 195.349 83.8513C194.839 83.3567 194.231 82.973 193.565 82.7241C192.9 82.4752 192.19 82.3665 191.48 82.4048ZM115.675 96.1083C115.354 96.0969 115.049 95.9612 114.826 95.7298C114.603 95.4984 114.478 95.1894 114.478 94.8678C114.478 94.5462 114.603 94.2372 114.826 94.0058C115.049 93.7744 115.354 93.6387 115.675 93.6273C115.996 93.6388 116.3 93.7745 116.524 94.0059C116.747 94.2373 116.871 94.5463 116.871 94.8678C116.871 95.1893 116.747 95.4983 116.524 95.7297C116.3 95.9611 115.996 96.0968 115.675 96.1083ZM124.562 95.6783C124.241 95.6669 123.937 95.5312 123.714 95.2998C123.49 95.0684 123.366 94.7594 123.366 94.4378C123.366 94.1162 123.49 93.8072 123.714 93.5758C123.937 93.3444 124.241 93.2087 124.562 93.1973C124.884 93.2088 125.188 93.3445 125.411 93.5759C125.634 93.8073 125.759 94.1163 125.759 94.4378C125.759 94.7593 125.634 95.0683 125.411 95.2997C125.188 95.5311 124.884 95.6668 124.562 95.6783ZM132.012 94.537C131.69 94.5256 131.386 94.3899 131.163 94.1585C130.939 93.9271 130.815 93.6181 130.815 93.2965C130.815 92.9749 130.939 92.6659 131.163 92.4345C131.386 92.2031 131.69 92.0674 132.012 92.056C132.333 92.0675 132.637 92.2032 132.86 92.4346C133.083 92.666 133.208 92.975 133.208 93.2965C133.208 93.6181 133.083 93.9271 132.86 94.1584C132.637 94.3898 132.333 94.5256 132.012 94.537ZM141.61 93.2469C141.289 93.2355 140.985 93.0998 140.761 92.8684C140.538 92.637 140.413 92.328 140.413 92.0064C140.413 91.6848 140.538 91.3758 140.761 91.1444C140.985 90.913 141.289 90.7773 141.61 90.7659C141.931 90.7774 142.236 90.9131 142.459 91.1445C142.682 91.3759 142.807 91.6849 142.807 92.0064C142.807 92.328 142.682 92.637 142.459 92.8683C142.236 93.0997 141.931 93.2354 141.61 93.2469ZM167.975 97.5473C167.654 97.5359 167.35 97.4002 167.126 97.1688C166.903 96.9374 166.778 96.6284 166.778 96.3068C166.778 95.9852 166.903 95.6762 167.126 95.4448C167.35 95.2134 167.654 95.0777 167.975 95.0663C168.297 95.0778 168.601 95.2135 168.824 95.4449C169.047 95.6763 169.172 95.9853 169.172 96.3068C169.172 96.6284 169.047 96.9374 168.824 97.1688C168.601 97.4001 168.297 97.5359 167.975 97.5473ZM168.124 84.9355C167.802 84.9249 167.497 84.7895 167.273 84.5581C167.049 84.3266 166.924 84.0171 166.924 83.695C166.924 83.3729 167.049 83.0634 167.273 82.8319C167.497 82.6005 167.802 82.4651 168.124 82.4545C168.446 82.4652 168.751 82.6006 168.975 82.832C169.199 83.0635 169.324 83.373 169.324 83.695C169.324 84.0171 169.199 84.3265 168.975 84.558C168.751 84.7894 168.446 84.9248 168.124 84.9355ZM175.573 81.8756C175.894 81.887 176.199 82.0227 176.422 82.2541C176.645 82.4855 176.77 82.7945 176.77 83.1161C176.77 83.4376 176.645 83.7467 176.422 83.9781C176.199 84.2095 175.894 84.3451 175.573 84.3566C175.252 84.3451 174.948 84.2094 174.724 83.978C174.501 83.7466 174.377 83.4376 174.377 83.1161C174.377 82.7946 174.501 82.4856 174.724 82.2542C174.948 82.0228 175.252 81.8871 175.573 81.8756ZM176.433 96.6872C176.111 96.6766 175.806 96.5412 175.582 96.3097C175.358 96.0782 175.233 95.7688 175.233 95.4467C175.233 95.1246 175.358 94.8152 175.582 94.5837C175.806 94.3522 176.111 94.2169 176.433 94.2062C176.755 94.2169 177.06 94.3523 177.284 94.5838C177.507 94.8153 177.632 95.1247 177.632 95.4467C177.632 95.7687 177.507 96.0782 177.283 96.3096C177.06 96.5411 176.755 96.6765 176.433 96.6872ZM183.022 81.5944C183.343 81.6058 183.648 81.7415 183.871 81.9729C184.094 82.2043 184.219 82.5133 184.219 82.8349C184.219 83.1565 184.094 83.4655 183.871 83.6969C183.648 83.9282 183.343 84.064 183.022 84.0754C182.701 84.064 182.396 83.9283 182.173 83.6969C181.95 83.4655 181.825 83.1565 181.825 82.8349C181.825 82.5133 181.95 82.2042 182.173 81.9728C182.396 81.7414 182.701 81.6058 183.022 81.5944ZM184.171 95.3971C183.85 95.3864 183.544 95.251 183.321 95.0196C183.097 94.7881 182.972 94.4786 182.972 94.1566C182.972 93.8345 183.097 93.525 183.321 93.2936C183.544 93.0621 183.85 92.9267 184.171 92.9161C184.493 92.9267 184.798 93.0621 185.022 93.2936C185.246 93.525 185.371 93.8345 185.371 94.1566C185.371 94.4786 185.246 94.7881 185.022 95.0196C184.798 95.251 184.493 95.3864 184.171 95.3971ZM56.8422 79.9791C56.2776 79.4475 55.5693 79.0938 54.8053 78.9617C54.0511 78.8474 53.2803 78.9247 52.5639 79.1867C51.1395 79.7772 49.8692 80.6862 48.8504 81.844C48.3154 82.4095 47.8174 83.0091 47.3596 83.6388C46.8803 84.256 46.4354 84.8991 46.0269 85.5653C45.1421 86.8562 44.4148 88.2536 43.6431 89.6193L43.689 89.4954C43.4799 90.4916 43.4661 91.5188 43.6484 92.5202C43.7179 92.9574 43.9237 93.3614 44.2365 93.6746C44.5565 93.9306 44.956 94.0664 45.3657 94.0583L46.949 94.1336L45.705 95.0134C45.2192 95.3735 44.6539 95.6113 44.0567 95.7065C43.9029 95.7278 43.7475 95.736 43.5922 95.7307C43.4351 95.7424 43.277 95.7268 43.1252 95.6846L42.6626 95.5691C42.5219 95.5023 42.3873 95.4211 42.2512 95.3446C41.987 95.1961 41.7515 95.0017 41.5556 94.7705C41.3512 94.5682 41.1785 94.3362 41.0433 94.0824C40.7566 93.615 40.5264 93.1152 40.3574 92.5936C39.8131 90.5826 39.544 88.507 39.5575 86.4237C39.5266 82.3104 39.9661 78.2567 40.1905 74.1873C40.3146 72.1523 40.4657 70.1182 40.6439 68.0851L40.9369 65.0348C41.0786 64.0218 41.1748 63.0025 41.3544 61.9925C41.6578 59.9532 42.1285 57.9424 42.7619 55.9803C43.4339 53.9946 44.4231 52.1308 45.6911 50.4616C46.0157 50.0454 46.3626 49.647 46.7301 49.2682L47.8858 48.1828L49.1582 47.2407C49.5806 46.9225 50.0574 46.6991 50.5052 46.4243C52.3203 45.4028 54.1527 44.5488 56.0025 43.6614C59.7045 41.9084 63.501 40.3625 67.3745 39.0308C69.3274 38.3739 71.3177 37.8336 73.3347 37.4129L74.8706 37.154L76.4373 37.0202C77.4679 36.9734 78.4867 36.9854 79.511 36.9958C83.5979 37.0417 87.6769 37.3695 91.7187 37.9768L91.7035 38.0953C89.6741 37.9432 87.6415 37.837 85.6088 37.8014C83.5771 37.7489 81.5453 37.742 79.5174 37.8074C78.5056 37.845 77.4864 37.8822 76.484 37.9492L75.0109 38.1169L73.5414 38.4078C71.582 38.8752 69.652 39.4583 67.7616 40.1543C65.8587 40.8356 63.9699 41.5669 62.1057 42.3638C60.2358 43.1452 58.3794 43.9617 56.5364 44.8133C54.7045 45.6661 52.824 46.5028 51.0756 47.4549C50.6529 47.7065 50.1947 47.9095 49.7996 48.2L48.602 49.0566L47.5155 50.0465C47.1686 50.3931 46.8408 50.7582 46.5333 51.1402C45.296 52.6918 44.3144 54.4312 43.6256 56.2925C42.9421 58.1884 42.4054 60.1341 42.0203 62.1124C41.2761 66.1104 40.7872 70.1518 40.5566 74.212C40.2154 78.2641 40.1153 82.3329 40.2567 86.3968C40.3313 88.3919 40.6721 90.3681 41.2701 92.273C41.5284 93.1376 42.0567 93.8968 42.7777 94.4393L43.0356 94.5807L43.3159 94.6425C43.4084 94.6732 43.5067 94.6824 43.6034 94.6695C43.7023 94.6736 43.8013 94.6687 43.8993 94.6549C44.3113 94.5832 44.7016 94.4187 45.0407 94.1738L45.3799 95.1288C44.6936 95.147 44.0259 94.9045 43.5111 94.45C43.0487 93.9865 42.7436 93.3894 42.639 92.743C42.527 92.1658 42.486 91.5771 42.5168 90.99C42.5427 90.4159 42.6155 89.8448 42.7347 89.2826L42.7495 89.2115L42.7806 89.1584C43.5904 87.7793 44.3527 86.3754 45.2831 85.0648C45.727 84.3955 46.2104 83.7532 46.7308 83.1414C47.2321 82.5103 47.7735 81.912 48.3514 81.3503C49.4757 80.1602 50.8751 79.2646 52.4266 78.7423C53.2212 78.5101 54.0615 78.4816 54.87 78.6597C55.6693 78.8511 56.3899 79.2849 56.9333 79.9018L56.8422 79.9791Z" fill="black"/>
<path d="M56.4789 49.4001C57.4115 49.881 58.1219 50.7044 58.461 51.6976C58.8406 52.6599 59.0821 53.6712 59.1784 54.7013C59.2636 55.7206 59.2628 56.7454 59.1761 57.7646C59.0889 58.7779 58.9254 59.7832 58.6871 60.7718L58.7106 57.7462C58.7079 56.7442 58.6707 55.7482 58.5846 54.7595C58.4953 53.777 58.3083 52.8059 58.0265 51.8606C57.7806 50.8987 57.2393 50.0382 56.4789 49.4001ZM77.5006 49.4001L86.9542 51.8918C88.5283 52.3157 89.8952 53.2965 90.8011 54.6521C91.5187 55.7117 92.465 56.8162 93.3745 56.9841C88.4768 63.6228 82.7209 61.7426 80.0002 53.3058M50.9492 99.9726C51.9038 101.368 52.802 102.797 53.6917 104.231C54.1449 104.943 54.5713 105.671 55.0103 106.391C55.388 107.118 55.8417 107.803 56.3637 108.434C56.9429 109.009 57.602 109.497 58.3206 109.884C59.0419 110.301 59.7844 110.68 60.5449 111.02C62.0711 111.708 63.6483 112.299 65.2419 112.859C63.5787 112.531 61.9475 112.057 60.3671 111.443C59.5677 111.143 58.7905 110.786 58.0415 110.376C57.2668 109.974 56.5562 109.459 55.9333 108.847C55.3824 108.178 54.909 107.449 54.5222 106.673C54.113 105.936 53.6912 105.206 53.2962 104.46C52.4894 102.979 51.6912 101.492 50.9492 99.9726ZM109.087 43.5953C108.979 44.4787 108.999 45.373 109.144 46.2509C109.281 47.1214 109.491 47.9789 109.772 48.8144C110.048 49.6564 110.367 50.4834 110.73 51.2921L111.294 52.5084C111.488 52.9131 111.701 53.3085 111.883 53.7273C111.588 53.383 111.324 53.0152 111.042 52.6567C110.794 52.277 110.542 51.8971 110.314 51.5026C109.862 50.7065 109.49 49.8676 109.204 48.9982C108.914 48.124 108.738 47.2159 108.682 46.2965C108.611 45.3771 108.75 44.4535 109.087 43.5953ZM121.95 54.6184C122.811 54.8219 123.714 54.7429 124.526 54.3931C125.31 54.0107 125.977 53.4263 126.46 52.7C127.401 51.2217 128.064 49.5847 128.419 47.8689C128.813 46.1562 129.095 44.4196 129.262 42.6701C129.436 40.9217 129.522 39.1657 129.519 37.4087L129.525 37.4797L128.947 34.43L128.807 33.6904L129.52 33.9095C130.813 34.249 132.008 34.8862 133.011 35.7702C133.27 36.0164 133.493 36.2984 133.674 36.6075C133.771 36.7657 133.851 36.9342 133.913 37.1098L133.964 37.2407C133.979 37.2716 133.97 37.2277 133.963 37.2298C133.986 37.2583 134.012 37.2851 134.039 37.3097C134.489 37.6702 134.977 37.9815 135.493 38.2384C137.664 39.381 139.971 40.3533 142.261 41.3207C146.861 43.2359 151.524 45.0164 156.169 46.8393L163.163 49.5109L166.69 50.8385C167.885 51.3912 168.971 52.1523 169.899 53.0862C170.801 54.0151 171.579 55.0566 172.213 56.1848C172.827 57.31 173.315 58.4992 173.67 59.731C174.346 62.1768 174.668 64.7072 174.623 67.2445L174.611 67.1575C175.2 69.2276 175.829 71.2968 176.532 73.3363C176.884 74.3561 177.249 75.3724 177.652 76.3731C178.039 77.3817 178.478 78.3694 178.967 79.3322C177.897 77.4479 176.978 75.4817 176.218 73.4521C175.426 71.4348 174.695 69.3947 174.024 67.3318L174.013 67.2967L174.012 67.2445C173.988 64.7797 173.612 62.3309 172.892 59.9733C172.525 58.8122 172.031 57.6949 171.42 56.6416C170.798 55.6085 170.05 54.6569 169.192 53.8088C168.348 52.9737 167.364 52.2939 166.284 51.8006L162.788 50.5213L155.761 47.9089C151.078 46.1596 146.434 44.3045 141.829 42.3435C139.529 41.3472 137.234 40.3589 134.994 39.1553C134.394 38.851 133.832 38.4776 133.319 38.0426C133.232 37.9604 133.156 37.8682 133.091 37.768C133.051 37.6968 133.017 37.6229 132.987 37.5469L132.952 37.4603C132.912 37.3403 132.859 37.2255 132.792 37.1182C132.66 36.8859 132.494 36.6741 132.301 36.4893C131.432 35.7036 130.398 35.1234 129.275 34.7919L129.849 34.2715L130.345 37.3356L130.352 37.3785L130.351 37.4069C130.306 39.1928 130.171 40.9753 129.947 42.7476C129.739 44.5224 129.395 46.2784 128.917 48C128.475 49.7447 127.719 51.3942 126.686 52.8679C126.151 53.6051 125.425 54.1824 124.587 54.5375C123.739 54.8472 122.815 54.8756 121.95 54.6184Z" fill="black"/>
<path d="M147.559 64.9874C147.236 65.7635 147.083 66.6 147.111 67.4403C147.097 68.2804 147.119 69.1178 147.176 69.9581C147.282 71.6358 147.459 73.3156 147.675 74.9936C147.77 75.8344 147.867 76.675 147.99 77.5149L148.308 80.0434C148.509 81.734 148.737 83.4237 148.836 85.1477C147.689 81.9064 146.902 78.5487 146.49 75.1353C146.38 74.2832 146.329 73.4193 146.26 72.5613C146.243 71.696 146.191 70.8341 146.248 69.9653C146.277 69.095 146.372 68.2281 146.532 67.3722C146.624 66.943 146.743 66.5201 146.889 66.1063C147.021 65.6859 147.251 65.3027 147.559 64.9874ZM151.521 98.4083C151.981 99.5571 152.368 100.734 152.678 101.932C153.006 103.118 153.265 104.318 153.511 105.52C153.734 106.726 153.943 107.935 154.084 109.157C154.246 110.385 154.327 111.621 154.329 112.859C153.867 111.711 153.48 110.534 153.17 109.335C152.842 108.149 152.583 106.95 152.339 105.748C152.117 104.541 151.908 103.332 151.767 102.11C151.606 100.882 151.524 99.646 151.521 98.4083ZM150.459 58.4301C151.416 57.2702 152.497 56.2184 153.682 55.2936C154.864 54.3531 156.137 53.5331 157.482 52.846C158.837 52.1651 160.274 51.6623 161.758 51.35C163.24 51.0539 164.762 51.0126 166.258 51.2279C165.514 51.2367 164.771 51.2899 164.033 51.3872C163.667 51.4449 163.297 51.4585 162.938 51.5468L161.861 51.7976C160.443 52.1903 159.066 52.7201 157.749 53.3795C156.434 54.0524 155.167 54.8144 153.955 55.6601C152.736 56.5139 151.569 57.4389 150.459 58.4301ZM39.8802 83.2372C33.2619 84.3277 26.6309 85.2999 19.9873 86.1537L10.0176 87.3969L8.77037 87.5421C8.57264 87.5674 8.32163 87.5884 8.20755 87.6151C8.04372 87.6441 7.86008 87.6885 7.68624 87.7364C6.97693 87.9348 6.29828 88.23 5.66941 88.6135C5.06205 89.0002 4.51512 89.4745 4.04634 90.0211C3.59506 90.5802 3.2396 91.2103 2.99444 91.8857C2.52467 93.3318 2.35782 94.8593 2.50431 96.3727C2.62989 98.0643 2.70182 99.7439 2.76282 101.418L3.13627 111.467C3.34369 118.167 3.74632 124.854 4.29005 131.531C4.84546 138.207 5.5544 144.871 6.27936 151.53L8.36575 171.505C8.70822 174.834 9.1097 178.154 9.50138 181.475C9.83383 184.804 10.3123 188.109 10.6765 191.431C10.8676 193.091 11.1091 194.74 11.3229 196.396C11.5423 198.05 11.7546 199.707 12.023 201.347C12.2845 202.99 12.5161 204.643 12.8018 206.279L13.7606 211.155L13.7762 211.228C13.9794 212.179 14.2944 213.102 14.7145 213.979C15.1569 214.876 15.6943 215.723 16.3173 216.506C17.5945 218.083 19.2146 219.347 21.0542 220.203L22.4792 220.787C22.963 220.961 23.4733 221.062 23.9709 221.204L24.7219 221.413C24.9755 221.469 25.236 221.494 25.4933 221.536L27.0467 221.767C28.0908 221.855 29.1482 221.86 30.2059 221.896L33.3873 221.701L33.4246 221.936L30.2401 222.448C29.1658 222.502 28.0833 222.586 26.9983 222.585C24.7951 222.561 22.613 222.153 20.5503 221.378C18.4509 220.55 16.5685 219.253 15.0466 217.587C14.281 216.746 13.6188 215.816 13.0741 214.818C12.5225 213.791 12.1022 212.699 11.8231 211.567L11.8385 211.64C10.2358 205.088 9.00945 198.449 8.16549 191.757C7.74627 188.426 7.31778 185.092 6.97897 181.754C6.64985 178.414 6.32041 175.075 6.04552 171.732C5.43766 165.052 4.96306 158.363 4.57461 151.669C4.20013 144.974 3.91994 138.275 3.5126 131.587C3.10392 124.898 2.60179 118.217 1.93125 111.547L0.971034 101.542L0.48226 96.5653C0.238805 94.7427 0.414902 92.8885 0.997105 91.1444C1.32078 90.2419 1.7924 89.3996 2.39262 88.652C3.01473 87.9246 3.74869 87.3009 4.56692 86.8044C5.3757 86.3255 6.24727 85.9617 7.15647 85.7235C7.38693 85.6643 7.61167 85.6129 7.86041 85.5721C8.15803 85.5216 8.32603 85.5175 8.54367 85.4916L9.79319 85.3649L19.7982 84.4331C26.4708 83.8368 33.1562 83.359 39.8544 82.9997L39.8802 83.2372Z" fill="black"/>
<path d="M19.9956 210.704C20.7288 215.489 21.3312 220.28 21.9445 225.07L22.8005 232.258L23.555 239.449C23.7986 241.847 24.1673 244.24 24.4956 246.634C24.816 249.023 24.927 251.435 24.8274 253.843C24.7307 256.271 24.4991 258.692 24.1336 261.095C23.7771 263.576 23.1899 266.018 22.3797 268.39L21.7033 268.418C20.7002 266.121 19.9135 263.736 19.3535 261.292C18.7911 258.928 18.3604 256.535 18.0637 254.123C17.7658 251.731 17.6774 249.318 17.7995 246.911C17.9291 244.497 18.0991 242.083 18.1441 239.673L18.3026 232.444L18.5626 225.21C18.7785 220.385 18.9835 215.562 19.3193 210.732L19.9956 210.704ZM73.3298 222.231C75.4518 221.981 77.5861 221.849 79.7228 221.837C81.8498 221.794 83.9715 221.857 86.0924 221.939C88.2119 222.056 90.3301 222.194 92.4435 222.437C94.5696 222.651 96.6819 222.985 98.7705 223.437C96.6485 223.689 94.514 223.821 92.3771 223.834C90.2504 223.875 88.1287 223.813 86.0078 223.728C83.8885 223.61 81.7703 223.471 79.6569 223.228C77.531 223.013 75.4187 222.68 73.3298 222.231ZM69.7319 177.083C71.7987 176.852 73.877 176.738 75.9568 176.743C78.0266 176.719 80.0905 176.799 82.1532 176.9C84.2139 177.034 86.2735 177.19 88.327 177.451C90.3939 177.683 92.4456 178.034 94.472 178.503C92.4053 178.738 90.3268 178.852 88.2469 178.846C86.1771 178.87 84.1131 178.79 82.0506 178.687C79.99 178.551 77.9304 178.395 75.8771 178.134C73.8104 177.901 71.7586 177.55 69.7319 177.083ZM70.2813 197.437C72.6553 197.067 75.0295 196.873 77.4036 196.741C79.7777 196.598 82.1518 196.56 84.5259 196.542C86.8999 196.558 89.2741 196.596 91.6482 196.738C94.0325 196.852 96.4097 197.085 98.7705 197.437C96.4097 197.79 94.0325 198.023 91.6482 198.136C89.2741 198.279 86.9 198.317 84.5259 198.333C82.1518 198.315 79.7777 198.277 77.4036 198.134C75.0295 198.002 72.6554 197.808 70.2813 197.437ZM140.442 198.719C143.562 198.757 146.654 198.766 149.706 198.565C151.216 198.473 152.719 198.286 154.205 198.004C155.625 197.784 156.99 197.295 158.227 196.565C158.765 196.241 159.213 195.788 159.529 195.246C159.669 194.979 159.771 194.694 159.832 194.399L160.041 193.277C160.325 191.778 160.509 190.256 160.715 188.731C161.085 185.676 161.358 182.594 161.649 179.485C162.085 182.584 162.239 185.716 162.108 188.843C162.066 190.411 161.91 191.975 161.716 193.543L161.532 194.715C161.445 195.182 161.293 195.634 161.079 196.059C160.636 196.876 159.991 197.566 159.206 198.064C158.484 198.519 157.702 198.872 156.883 199.115C156.105 199.364 155.308 199.549 154.5 199.67C152.925 199.901 151.333 199.997 149.741 199.957C146.604 199.905 143.484 199.489 140.442 198.719Z" fill="black"/>
<path d="M139.619 225.891C143.103 226.099 146.588 226.268 150.074 226.399C153.56 226.511 157.044 226.588 160.527 226.631C167.472 226.742 174.416 226.434 181.324 225.708C183.033 225.488 184.739 225.243 186.405 224.875C188.059 224.554 189.678 224.072 191.238 223.439C191.619 223.294 191.987 223.121 192.342 222.921L192.876 222.642L193.354 222.311C193.697 222.088 194.023 221.84 194.332 221.572L195.323 220.741C196.641 219.624 197.919 218.456 199.195 217.29C201.736 214.957 204.149 212.487 206.422 209.892C208.7 207.365 210.641 204.552 212.195 201.525C212.394 201.16 212.557 200.777 212.683 200.382L213.093 199.217C213.228 198.818 213.348 198.364 213.476 197.941L213.884 196.68C214.447 195.012 215.031 193.358 215.636 191.719C216.841 188.433 218.086 185.168 219.338 181.906C221.849 175.385 224.316 168.85 226.741 162.302C229.111 155.732 231.559 149.191 233.804 142.58C234.938 139.278 236.063 135.974 237.135 132.658C237.668 130.999 238.193 129.337 238.68 127.673C238.928 126.84 239.155 126.008 239.372 125.177L239.656 123.943L239.752 123.356C239.77 123.284 239.775 123.209 239.768 123.134C239.769 123.079 239.774 123.023 239.784 122.968L239.811 122.561C240.314 120.781 240.725 118.977 241.042 117.155C241.369 115.349 241.552 113.519 241.589 111.683C241.67 109.933 241.404 108.185 240.809 106.537C240.561 105.819 240.116 105.186 239.525 104.709C238.934 104.232 238.221 103.931 237.467 103.841L236.478 103.722L236.519 102.689C236.664 98.6408 236.601 94.5875 236.331 90.5454C236.081 86.5036 235.603 82.4791 234.898 78.4914C234.223 74.5287 233.202 70.6327 231.848 66.8481C230.55 63.1159 228.619 59.6349 226.142 56.557L226.053 56.4416C226.059 56.4701 226.141 56.5469 226.107 56.5178L226.053 56.4739C226.014 56.4346 225.97 56.4 225.923 56.3707L225.56 56.1256C225.266 55.9732 224.98 55.8114 224.675 55.6625C224.03 55.3889 223.395 55.101 222.699 54.8825L221.678 54.528L220.623 54.2281C219.918 54.0316 219.222 53.8146 218.498 53.6618L216.345 53.15C215.624 52.9869 214.892 52.8572 214.166 52.709L211.981 52.2841L209.778 51.926C203.9 50.9786 197.955 50.3138 191.996 49.8097L187.527 49.4027L183.049 49.071L178.569 48.7473L174.084 48.4925C171.093 48.3449 168.103 48.1047 165.108 47.9941L156.125 47.5554L156.128 47.3166C162.126 47.2591 168.128 47.211 174.129 47.3383L178.63 47.43L183.131 47.5909L187.633 47.7601L192.133 48.0125C198.132 48.3857 204.127 48.9198 210.109 49.7472L212.352 50.0609L214.59 50.4443C215.336 50.5793 216.083 50.6948 216.828 50.846L219.06 51.3327C219.804 51.4823 220.543 51.7025 221.284 51.9014L222.395 52.2059L223.502 52.5766C224.241 52.8014 224.978 53.1195 225.714 53.4276C226.084 53.6023 226.456 53.8041 226.826 53.9972L227.399 54.3749C227.508 54.4493 227.611 54.5316 227.708 54.6213L227.866 54.7615C227.956 54.8483 228.038 54.9427 228.111 55.0436L228.022 54.9285C230.745 58.2006 232.852 61.9395 234.241 65.9639C234.964 67.9266 235.58 69.9274 236.084 71.9573C236.6 73.9771 237.029 76.0145 237.36 78.0635C238.03 82.1505 238.468 86.2721 238.672 90.4086C238.897 94.5421 238.908 98.6845 238.707 102.819L237.76 101.668C238.902 101.82 239.979 102.288 240.87 103.018C241.717 103.755 242.366 104.693 242.755 105.746C243.421 107.666 243.697 109.699 243.566 111.727C243.486 113.664 243.252 115.591 242.866 117.491C242.501 119.381 242.023 121.247 241.433 123.079L241.461 122.672C241.466 122.834 241.466 122.998 241.46 123.161C241.462 123.305 241.447 123.449 241.417 123.589L241.278 124.291L240.932 125.599C240.679 126.45 240.418 127.294 240.14 128.126C239.591 129.796 239.009 131.447 238.418 133.095C237.235 136.388 236.026 139.668 234.79 142.935L227.424 162.555C224.999 169.104 222.606 175.666 220.337 182.27C219.203 185.571 218.077 188.876 216.994 192.189C216.45 193.844 215.928 195.503 215.429 197.164L215.074 198.408C214.963 198.825 214.874 199.22 214.746 199.653C214.508 200.541 214.205 201.411 213.84 202.255C212.332 205.512 210.365 208.537 208 211.236C205.71 213.93 203.256 216.479 200.651 218.868C199.348 220.055 198.019 221.212 196.664 222.34L195.636 223.177C195.281 223.476 194.907 223.751 194.516 224.002L193.909 224.404L193.28 224.724C192.87 224.947 192.445 225.14 192.008 225.301C190.323 225.961 188.579 226.456 186.799 226.78C185.05 227.14 183.293 227.367 181.538 227.569C174.542 228.203 167.508 228.325 160.494 227.934C156.996 227.795 153.505 227.56 150.022 227.248C146.539 226.942 143.06 226.599 139.595 226.129L139.619 225.891Z" fill="black"/>
<path d="M215.046 53.7275C216.09 53.8698 217.08 54.2782 217.921 54.9135C218.787 55.5229 219.565 56.2474 220.235 57.067L220.752 57.6722L221.193 58.3274L222.071 59.6492C222.545 60.5828 223.061 61.5119 223.471 62.4773C223.848 63.4534 224.258 64.4256 224.586 65.4208L225.444 68.4383C225.729 69.4458 225.863 70.4798 226.08 71.4999C226.28 72.5231 226.49 73.5457 226.594 74.579C226.822 76.6444 227.112 78.7058 227.168 80.7781C227.252 82.8493 227.393 84.9171 227.298 86.9859C227.257 91.1171 226.97 95.2422 226.437 99.3392C226.298 97.2737 226.24 95.2175 226.176 93.164L226.146 91.6249L226.056 90.0878L225.9 87.0176C225.832 85.9961 225.837 84.9704 225.735 83.9534L225.477 80.9001C225.371 78.8579 225.071 76.8441 224.821 74.8239C224.346 70.7994 223.46 66.8342 222.177 62.9903C221.853 62.0365 221.404 61.1405 221.039 60.1974L220.328 58.8751L219.969 58.2119L219.54 57.5987C218.998 56.7544 218.352 55.9823 217.615 55.3012L217.049 54.7992L216.425 54.3738C216.003 54.0868 215.537 53.8687 215.046 53.7275Z" fill="black"/>
<path d="M187.638 118.05C188.312 115.803 189.131 113.606 190.01 111.428C190.883 109.235 191.895 107.1 193.039 105.035C193.621 103.986 194.27 102.977 194.982 102.012C195.708 100.983 196.592 100.075 197.603 99.3223C198.176 98.8951 198.841 98.6076 199.545 98.4826C199.954 98.4196 200.174 98.4056 200.489 98.3767L201.368 98.301L204.879 98.0449C209.575 97.7319 214.285 97.6877 218.986 97.9127C221.364 98.0301 223.731 98.3208 226.067 98.7825C227.267 99.0352 228.442 99.3925 229.579 99.8503C230.181 100.096 230.752 100.413 231.28 100.793C231.885 101.213 232.364 101.789 232.667 102.459L232.418 102.138C233.33 102.95 234.102 103.906 234.703 104.969C235.302 105.987 235.768 107.077 236.089 108.214C236.704 110.458 236.889 112.799 236.634 115.112C236.395 117.389 235.868 119.626 235.068 121.771C234.719 122.854 234.327 123.915 233.924 124.97L232.73 128.143L227.862 140.79C226.238 145.005 224.571 149.202 222.859 153.38C221.168 157.567 219.4 161.72 217.648 165.881C215.878 170.033 214.153 174.206 212.326 178.333C208.724 186.611 204.963 194.817 201.13 202.994L201.183 202.846C200.52 205.023 199.806 207.137 198.979 209.233C198.159 211.325 197.27 213.392 196.277 215.412C195.305 217.451 194.155 219.399 192.839 221.235C192.181 222.159 191.44 223.022 190.625 223.812C189.816 224.62 188.855 225.259 187.797 225.693L187.704 225.473C188.665 224.953 189.52 224.258 190.225 223.424C190.947 222.6 191.592 221.713 192.152 220.772C193.274 218.879 194.259 216.908 195.101 214.875C195.956 212.843 196.707 210.764 197.389 208.664C198.059 206.565 198.716 204.439 199.25 202.326L199.265 202.267L199.303 202.177C202.816 193.867 206.345 185.561 209.995 177.31L221.029 152.595C224.692 144.351 228.561 136.192 231.987 127.851C232.433 126.814 232.816 125.757 233.226 124.708C233.636 123.658 234.038 122.607 234.387 121.544L234.913 119.948L235.319 118.329C235.451 117.79 235.553 117.244 235.626 116.693L235.753 115.871L235.805 115.043C235.988 112.852 235.713 110.646 234.996 108.567C234.644 107.548 234.162 106.578 233.562 105.682C232.997 104.809 232.299 104.029 231.494 103.371L231.358 103.267L231.244 103.049C230.681 102.271 229.867 101.711 228.938 101.466C227.885 101.112 226.804 100.851 225.706 100.683C223.442 100.342 221.16 100.126 218.872 100.035C214.264 99.8308 209.616 99.8496 204.975 100.022L201.494 100.168L200.626 100.216C200.359 100.229 199.996 100.253 199.828 100.277C199.377 100.348 198.947 100.519 198.572 100.78C197.681 101.39 196.891 102.136 196.23 102.99C195.517 103.877 194.853 104.801 194.239 105.759C191.806 109.717 189.675 113.852 187.863 118.131L187.638 118.05ZM179.922 219.159C180.582 223.592 181.111 228.029 181.651 232.466L182.397 239.123L183.042 245.783C183.249 248.003 183.581 250.22 183.873 252.438C184.157 254.65 184.231 256.884 184.095 259.11C183.961 261.357 183.693 263.595 183.291 265.81C182.894 268.11 182.27 270.365 181.426 272.541L180.749 272.56C179.785 270.435 179.034 268.219 178.509 265.945C177.983 263.756 177.589 261.537 177.328 259.3C177.067 257.086 177.015 254.851 177.174 252.627C177.34 250.396 177.547 248.164 177.629 245.936L177.897 239.25L178.268 232.562C178.557 228.101 178.836 223.642 179.245 219.178L179.922 219.159ZM209.631 199.728C210.126 203.874 210.49 208.018 210.865 212.16L211.363 218.372L211.761 224.583C211.885 226.652 212.135 228.723 212.344 230.792C212.545 232.856 212.537 234.936 212.318 236.998C212.1 239.087 211.748 241.159 211.265 243.203C210.78 245.34 210.071 247.42 209.152 249.41H208.475C207.592 247.415 206.924 245.332 206.481 243.196C206.037 241.145 205.726 239.069 205.548 236.979C205.369 234.909 205.401 232.826 205.642 230.763C205.891 228.692 206.181 226.622 206.345 224.551L206.862 218.34L207.48 212.131C207.935 207.992 208.379 203.855 208.954 199.72L209.631 199.728ZM6.13696 87.6689C6.97009 87.8985 7.82133 88.0562 8.68136 88.1406C9.53805 88.2442 10.3963 88.3298 11.2577 88.3842C12.9786 88.5061 14.7053 88.5479 16.431 88.5564C19.882 88.5995 23.3341 88.5075 26.7842 88.3878L29.3717 88.2719C30.2802 88.2149 31.192 88.2426 32.0954 88.3545C33.9356 88.5994 35.7011 89.24 37.2703 90.2322C38.839 91.2424 40.1627 92.5898 41.1451 94.1763C41.6293 94.9638 42.0313 95.7991 42.3446 96.669C42.6561 97.5056 42.9283 98.3535 43.1701 99.2077C44.0616 102.622 44.5916 106.12 44.7512 109.644C44.8921 113.121 45.0767 116.527 45.4756 119.955C45.8711 123.372 46.4002 126.777 47.1285 130.146C47.8147 133.534 48.7755 136.859 50.0014 140.091C46.8801 133.874 45.1585 127.015 44.09 120.138C43.5205 116.703 43.2967 113.186 43.0585 109.748C42.8637 106.348 42.3233 102.978 41.4457 99.6876C41.2222 98.8738 40.971 98.0696 40.6846 97.2809C40.4184 96.5176 40.0736 95.7841 39.6558 95.0921C38.8121 93.7147 37.679 92.5373 36.3351 91.6415C34.9912 90.7457 33.4686 90.1529 31.8729 89.9043C31.0595 89.7862 30.2371 89.7406 29.4156 89.7682L26.8106 89.7803C23.3371 89.7802 19.8608 89.6823 16.3923 89.4287C14.6593 89.2861 12.9281 89.1101 11.2068 88.8537C9.47731 88.6528 7.77639 88.2554 6.13696 87.6689ZM76.4207 263.709C75.2714 267.579 52.3455 277.33 52.3455 277.33L51.9818 277.867C49.611 281.402 47.0152 284.781 44.2104 287.982C45.7421 287.43 47.4216 287.451 48.9394 288.04C49.7064 288.342 50.3897 288.824 50.9318 289.445C51.4644 290.052 51.8493 290.774 52.0563 291.554C51.651 290.901 51.1617 290.303 50.6012 289.776C50.0535 289.266 49.4137 288.865 48.7161 288.594C48.0162 288.315 47.2821 288.132 46.5335 288.048C45.7624 287.959 44.9852 287.937 44.2104 287.982C43.119 289.23 41.9946 290.454 40.8372 291.654C41.5904 291.441 42.3696 291.336 43.1521 291.339C43.9428 291.326 44.731 291.429 45.4918 291.645C46.2725 291.857 46.9957 292.241 47.6082 292.77C48.195 293.316 48.5993 294.029 48.7657 294.813C48.4042 294.157 47.9084 293.585 47.3107 293.134C46.706 292.718 46.035 292.407 45.3264 292.216C44.6078 292.01 43.8716 291.872 43.1273 291.802C42.3749 291.728 41.6143 291.67 40.8372 291.654C38.4974 294.085 36.0337 296.409 33.4708 298.625C16.1255 313.577 26.989 319.606 26.989 319.606C40.5974 334.377 83.4398 284.492 83.4398 284.492C85.8787 268.01 76.4207 263.709 76.4207 263.709ZM34.7936 317.547L33.0657 317.878C33.0409 317.886 33.0161 317.87 33.0078 317.837C33.008 317.824 33.012 317.811 33.0194 317.801C33.0268 317.791 33.0372 317.783 33.0492 317.779L34.7523 317.39H34.7605C34.7814 317.385 34.8034 317.388 34.822 317.399C34.8405 317.409 34.8541 317.427 34.8598 317.448C34.8632 317.47 34.8584 317.492 34.8461 317.51C34.8338 317.529 34.8151 317.542 34.7936 317.547ZM38.175 316.546H38.1668L36.4967 317.092C36.4826 317.097 36.4677 317.099 36.4528 317.098C36.4379 317.097 36.4234 317.093 36.4102 317.086C36.3971 317.079 36.3854 317.069 36.3761 317.057C36.3668 317.046 36.3601 317.032 36.3562 317.018C36.3509 317.004 36.3485 316.99 36.349 316.975C36.3495 316.961 36.3529 316.946 36.3591 316.933C36.3653 316.92 36.3741 316.908 36.3849 316.899C36.3958 316.889 36.4085 316.882 36.4223 316.877L38.0675 316.282L38.0758 316.273C38.112 316.262 38.1513 316.265 38.1854 316.282C38.2194 316.299 38.2454 316.328 38.2577 316.364C38.2652 316.382 38.269 316.4 38.2689 316.419C38.2687 316.438 38.2646 316.457 38.2568 316.474C38.249 316.491 38.2377 316.506 38.2236 316.519C38.2095 316.531 38.193 316.541 38.175 316.546ZM41.4324 315.223H41.4241L39.812 315.918C39.7726 315.935 39.728 315.936 39.6879 315.92C39.6478 315.905 39.6155 315.874 39.598 315.835C39.5806 315.795 39.5793 315.751 39.5946 315.711C39.6099 315.67 39.6405 315.638 39.6797 315.62L39.688 315.612L41.2753 314.892L41.2836 314.884C41.3275 314.864 41.3773 314.863 41.4223 314.88C41.4672 314.897 41.5036 314.931 41.5234 314.975C41.5431 315.02 41.5446 315.071 41.5277 315.117C41.5107 315.164 41.4766 315.201 41.4324 315.223ZM44.5907 313.66V313.668L43.0199 314.471C42.9715 314.494 42.9159 314.498 42.8648 314.481C42.8138 314.464 42.7715 314.428 42.7471 314.38C42.724 314.333 42.7197 314.28 42.735 314.231C42.7504 314.181 42.7843 314.14 42.8296 314.115L42.8379 314.107L44.3758 313.28H44.384C44.4347 313.253 44.4939 313.246 44.5493 313.262C44.6047 313.277 44.652 313.313 44.6815 313.362C44.6952 313.388 44.7037 313.416 44.7065 313.445C44.7094 313.473 44.7065 313.502 44.698 313.53C44.6896 313.558 44.6758 313.584 44.6573 313.606C44.6389 313.628 44.6163 313.647 44.5907 313.66ZM43.5656 297.418C42.8202 297.023 42.0248 296.731 41.201 296.549C40.3657 296.372 39.5163 296.27 38.6629 296.243C37.7968 296.219 36.9301 296.244 36.0669 296.318C37.7541 295.72 39.5727 295.597 41.325 295.962C42.211 296.159 43.0541 296.515 43.8135 297.012C44.5534 297.523 45.1694 298.192 45.6159 298.973C45.0092 298.36 44.319 297.837 43.5656 297.418ZM47.658 311.932H47.6497L46.1284 312.817C46.0747 312.848 46.0105 312.858 45.9501 312.842C45.8896 312.827 45.8378 312.788 45.806 312.734C45.7742 312.68 45.7651 312.616 45.7806 312.555C45.7961 312.495 45.835 312.443 45.8887 312.411V312.403L47.3851 311.502L47.3933 311.493C47.4517 311.46 47.5206 311.451 47.5854 311.468C47.6503 311.485 47.706 311.527 47.7406 311.584C47.7751 311.642 47.7857 311.71 47.7702 311.775C47.7548 311.84 47.7145 311.896 47.658 311.932ZM50.6178 310.038L49.1461 310.997C49.1176 311.017 49.0854 311.031 49.0514 311.037C49.0174 311.044 48.9824 311.044 48.9484 311.037C48.9144 311.03 48.8822 311.017 48.8537 310.997C48.8251 310.977 48.8009 310.952 48.7823 310.923C48.7465 310.865 48.7343 310.796 48.7481 310.73C48.762 310.664 48.8009 310.605 48.8567 310.567H48.865L50.3201 309.591H50.3284C50.357 309.572 50.3892 309.558 50.4231 309.551C50.4571 309.545 50.492 309.545 50.5259 309.552C50.5599 309.559 50.592 309.572 50.6206 309.592C50.6491 309.611 50.6734 309.636 50.6921 309.666C50.7118 309.695 50.7255 309.728 50.7324 309.762C50.7394 309.797 50.7394 309.833 50.7324 309.867C50.7255 309.902 50.7119 309.935 50.6922 309.964C50.6725 309.993 50.6472 310.018 50.6178 310.038ZM53.5032 308.02V308.028L52.0728 309.045C52.0135 309.086 51.9406 309.102 51.8696 309.09C51.7986 309.078 51.7353 309.038 51.6931 308.98C51.651 308.922 51.6333 308.849 51.644 308.778C51.6547 308.706 51.6929 308.642 51.7504 308.599H51.7586L53.1806 307.573C53.2266 307.541 53.2815 307.524 53.3377 307.524C53.3827 307.524 53.4269 307.534 53.4671 307.554C53.5073 307.574 53.5422 307.604 53.5692 307.64C53.5905 307.669 53.6057 307.702 53.6139 307.737C53.6221 307.772 53.6232 307.808 53.617 307.844C53.6109 307.879 53.5976 307.913 53.578 307.944C53.5584 307.974 53.533 308 53.5032 308.02ZM56.3223 305.911L54.9251 306.978C54.8659 307.024 54.7908 307.045 54.7164 307.035C54.642 307.026 54.5743 306.988 54.5282 306.928C54.4822 306.869 54.4616 306.794 54.4709 306.72C54.4802 306.645 54.5186 306.577 54.5779 306.531L55.9669 305.456C56.0195 305.417 56.0834 305.397 56.1487 305.398C56.1917 305.398 56.2343 305.407 56.273 305.426C56.3117 305.444 56.3456 305.472 56.3719 305.506C56.4189 305.566 56.44 305.643 56.4307 305.719C56.4214 305.795 56.3824 305.864 56.3223 305.911ZM59.0672 303.711L57.7029 304.828C57.6726 304.852 57.6378 304.87 57.6006 304.88C57.5633 304.891 57.5243 304.894 57.4858 304.89C57.4473 304.885 57.4101 304.873 57.3764 304.854C57.3427 304.834 57.3132 304.809 57.2895 304.778C57.2415 304.717 57.2191 304.64 57.2268 304.563C57.2345 304.486 57.2718 304.415 57.3309 304.365L58.6868 303.256C58.7472 303.205 58.8254 303.18 58.9044 303.186C58.9834 303.192 59.0568 303.229 59.1084 303.289C59.1342 303.32 59.1536 303.354 59.1655 303.392C59.1774 303.43 59.1816 303.47 59.1777 303.509C59.1739 303.549 59.1621 303.587 59.1431 303.622C59.1241 303.656 59.0983 303.687 59.0672 303.711ZM61.7376 301.429L60.4147 302.578C60.3855 302.604 60.3516 302.623 60.3149 302.635C60.2782 302.647 60.2395 302.652 60.201 302.648C60.1626 302.645 60.1251 302.635 60.0908 302.617C60.0565 302.599 60.0261 302.575 60.0013 302.545C59.9761 302.517 59.9569 302.483 59.9449 302.447C59.9329 302.411 59.9283 302.373 59.9314 302.335C59.9345 302.298 59.9452 302.261 59.9629 302.227C59.9806 302.194 60.0049 302.164 60.0344 302.14L61.3656 300.999C61.4227 300.948 61.4973 300.923 61.5733 300.927C61.6492 300.932 61.7201 300.967 61.7707 301.023C61.8178 301.083 61.8406 301.157 61.8344 301.233C61.8283 301.308 61.7937 301.378 61.7376 301.429ZM64.3583 299.072L63.0521 300.254C63.026 300.28 62.995 300.3 62.9609 300.312C62.9269 300.325 62.8906 300.331 62.8542 300.33C62.8178 300.328 62.7822 300.319 62.7494 300.303C62.7166 300.288 62.6873 300.265 62.6635 300.238C62.639 300.211 62.62 300.18 62.6076 300.146C62.5951 300.112 62.5895 300.076 62.5911 300.04C62.5926 300.004 62.6013 299.969 62.6165 299.936C62.6318 299.903 62.6534 299.874 62.68 299.849L62.6883 299.841L63.9946 298.675C64.0199 298.649 64.0502 298.63 64.0836 298.617C64.1169 298.604 64.1526 298.598 64.1884 298.599C64.2242 298.601 64.2592 298.61 64.2913 298.626C64.3234 298.642 64.3519 298.664 64.3749 298.691C64.4224 298.744 64.4472 298.814 64.4441 298.885C64.441 298.956 64.4102 299.023 64.3583 299.072ZM66.9213 296.665L65.6481 297.873C65.5962 297.921 65.5274 297.948 65.4563 297.946C65.3852 297.944 65.3176 297.915 65.2678 297.864C65.2443 297.839 65.2261 297.809 65.2142 297.777C65.2023 297.744 65.197 297.709 65.1985 297.675C65.2001 297.64 65.2085 297.606 65.2232 297.575C65.2379 297.544 65.2587 297.515 65.2844 297.492V297.484L66.5658 296.285C66.6165 296.239 66.683 296.216 66.751 296.219C66.8189 296.222 66.883 296.251 66.9295 296.301C66.9759 296.351 67.0011 296.417 66.9996 296.485C66.9981 296.553 66.97 296.618 66.9213 296.665ZM69.4264 294.201L68.1863 295.441C68.1377 295.489 68.0724 295.516 68.0044 295.516C67.9363 295.516 67.871 295.489 67.8225 295.441C67.7989 295.418 67.7802 295.39 67.7674 295.36C67.7546 295.329 67.7481 295.296 67.7481 295.263C67.7481 295.23 67.7546 295.198 67.7674 295.167C67.7802 295.137 67.7989 295.109 67.8225 295.086L67.8307 295.077L69.0956 293.862C69.1396 293.818 69.199 293.793 69.261 293.793C69.323 293.793 69.3824 293.818 69.4264 293.862C69.4701 293.907 69.4946 293.968 69.4946 294.031C69.4946 294.094 69.4701 294.155 69.4264 294.201ZM71.8819 291.678L70.6583 292.944C70.6384 292.965 70.6144 292.982 70.5877 292.995C70.5611 293.007 70.5323 293.013 70.503 293.014C70.4737 293.015 70.4445 293.01 70.4173 292.999C70.39 292.988 70.3651 292.972 70.3441 292.952C70.3231 292.932 70.3065 292.907 70.2951 292.88C70.2837 292.853 70.2778 292.824 70.2778 292.795C70.2778 292.766 70.2836 292.737 70.295 292.71C70.3064 292.683 70.323 292.658 70.344 292.638L71.5924 291.397C71.6102 291.378 71.632 291.362 71.6562 291.351C71.6804 291.341 71.7065 291.335 71.733 291.335C71.7595 291.335 71.7856 291.341 71.8098 291.351C71.834 291.362 71.8557 291.378 71.8736 291.397C71.8928 291.415 71.9083 291.436 71.9191 291.46C71.9299 291.484 71.9359 291.51 71.9367 291.536C71.9374 291.562 71.933 291.588 71.9235 291.613C71.9141 291.637 71.9 291.659 71.8819 291.678ZM74.2876 289.115L73.0889 290.405C73.0548 290.44 73.0079 290.461 72.9586 290.463C72.9092 290.464 72.8613 290.446 72.8253 290.412C72.7893 290.378 72.7681 290.331 72.7664 290.282C72.7646 290.233 72.7825 290.185 72.816 290.148H72.8243L74.0478 288.883C74.0628 288.867 74.0807 288.855 74.1006 288.846C74.1205 288.838 74.1419 288.833 74.1636 288.833C74.1852 288.833 74.2067 288.838 74.2266 288.846C74.2465 288.855 74.2644 288.867 74.2794 288.883C74.3104 288.913 74.3286 288.954 74.3301 288.997C74.3316 289.04 74.3164 289.082 74.2876 289.115ZM76.644 286.51L75.4699 287.816C75.4577 287.831 75.4426 287.843 75.4255 287.852C75.4084 287.861 75.3896 287.867 75.3703 287.868C75.351 287.87 75.3317 287.868 75.3133 287.862C75.295 287.855 75.2781 287.846 75.2636 287.833C75.2491 287.82 75.2373 287.804 75.229 287.787C75.2207 287.77 75.216 287.751 75.2152 287.731C75.2144 287.712 75.2175 287.693 75.2244 287.675C75.2312 287.656 75.2416 287.64 75.255 287.626V287.618L76.4703 286.352C76.4922 286.331 76.521 286.319 76.5514 286.317C76.5818 286.316 76.6118 286.325 76.6357 286.344C76.6549 286.367 76.6661 286.396 76.6676 286.425C76.6691 286.455 76.6608 286.485 76.644 286.51ZM77.8013 285.186C77.7863 285.201 77.7663 285.211 77.7451 285.212C77.7238 285.214 77.7027 285.207 77.6857 285.195C77.6773 285.188 77.6705 285.179 77.6655 285.169C77.6605 285.16 77.6576 285.149 77.6568 285.138C77.656 285.128 77.6575 285.117 77.661 285.107C77.6646 285.096 77.6701 285.087 77.6774 285.079L78.8762 283.789C78.8854 283.781 78.8972 283.776 78.9094 283.776C78.9216 283.776 78.9334 283.781 78.9425 283.789C78.9517 283.797 78.9575 283.808 78.959 283.82C78.9605 283.833 78.9574 283.845 78.9505 283.855L77.8013 285.186Z" fill="black"/>
<path d="M30.4238 318.034L31.315 318.018C31.3193 318.018 31.3236 318.019 31.3269 318.022C31.3303 318.024 31.3325 318.028 31.333 318.033C31.3335 318.037 31.3324 318.041 31.3298 318.045C31.3271 318.048 31.3233 318.05 31.319 318.051H31.3168L30.4238 318.034Z" fill="white"/>
<path d="M54.1115 268.791C54.3799 269.484 54.5565 270.209 54.6366 270.947C54.7281 271.684 54.7495 272.427 54.7006 273.167C54.6478 273.913 54.5084 274.651 54.2854 275.366C54.0644 276.087 53.697 276.755 53.2061 277.328C53.5279 275.94 53.7292 274.526 53.808 273.103C53.9167 271.689 53.9478 270.271 54.1115 268.791ZM74.5815 260.737C75.0656 261.423 75.4405 262.179 75.6927 262.98C75.8168 263.365 75.9355 263.75 76.0358 264.137C76.1176 264.534 76.246 264.921 76.4181 265.288C75.9805 265.143 75.6158 264.835 75.4001 264.428C75.1683 264.066 74.9819 263.676 74.8453 263.268C74.5557 262.458 74.4652 261.59 74.5815 260.737ZM87.9524 19.9102C87.5656 21.0989 87.4918 22.3674 87.7383 23.593C87.9347 24.8135 88.507 25.9431 88.7604 27.2038C88.8872 27.8235 88.9763 28.4503 89.0272 29.0808C89.1012 29.6969 89.2005 30.311 89.3134 30.9227C89.4948 32.1453 89.7987 33.3465 90.2204 34.5083C91.1695 36.7954 92.4781 38.9161 94.0964 40.7901C94.8836 41.7358 95.7888 42.5765 96.79 43.2916C97.7485 44.0217 98.9117 44.433 100.116 44.4675L100.139 44.4669L100.148 44.4675C101.93 44.6009 103.72 44.5704 105.497 44.3765C106.384 44.2872 107.262 44.1116 108.115 43.8521C108.986 43.6279 109.772 43.1522 110.374 42.4844C109.814 43.2071 109.044 43.7394 108.17 44.0086C107.317 44.3196 106.435 44.5439 105.537 44.6781C103.742 44.9331 101.927 45.0222 100.115 44.9445L100.147 44.9445C98.8284 44.9505 97.5436 44.5254 96.4884 43.7338C95.4406 43.0032 94.4909 42.1409 93.6627 41.1682C91.9844 39.2566 90.6494 37.0688 89.7169 34.7017C89.2916 33.5041 88.994 32.2648 88.8293 31.0046C88.7348 30.3812 88.6538 29.7552 88.5986 29.1254C88.5689 28.5058 88.5015 27.8885 88.3967 27.277C88.1969 26.0688 87.6515 24.9028 87.5203 23.6258C87.3273 22.3709 87.4766 21.0872 87.9524 19.9102ZM124.992 30.5165C125.61 31.7101 126.17 32.8943 126.847 33.9945C127.174 34.5375 127.566 35.0382 128.015 35.4857C128.234 35.7152 128.499 35.8955 128.792 36.0149C129.086 36.1343 129.402 36.1899 129.719 36.1781C129.387 36.304 129.028 36.3399 128.678 36.2823C128.327 36.2248 127.999 36.0757 127.724 35.8502C127.171 35.4282 126.701 34.9058 126.34 34.3101C125.635 33.1514 125.176 31.8601 124.992 30.5165Z" fill="black"/>
<path d="M108.442 22.2045C108.442 22.2045 108.237 19.4894 111.883 19.9103C115.53 20.3312 114.289 29.0117 112.454 29.0117C112.454 29.0117 120.437 38.4471 126.526 29.8462C126.526 29.8462 128.026 7.79282 112.244 2.60167C96.4626 -2.58948 92.9561 8.07343 92.9561 8.07343C92.9561 8.07343 80.929 13.9814 87.0365 19.782C88.7813 21.393 91.0779 22.2722 93.4521 22.238L108.442 22.2045Z" fill="#020202" stroke="black" stroke-width="0.699" stroke-miterlimit="10"/>
<path d="M87.9034 24.8717C88.4121 24.6027 88.9919 24.4988 89.5623 24.5745C89.8561 24.6074 90.1406 24.6971 90.4001 24.8386C90.5397 24.9044 90.6621 25.0016 90.7579 25.1226C90.8538 25.2436 90.9204 25.385 90.9526 25.536C90.7335 25.3976 90.4873 25.3078 90.2306 25.2726C89.9884 25.2322 89.7446 25.1906 89.4899 25.1669C88.9532 25.1171 88.4221 25.0183 87.9034 24.8717ZM94.0692 24.6222C94.258 24.1483 94.5404 23.7172 94.8995 23.3549C95.2585 22.9925 95.6869 22.7063 96.159 22.5132C96.6266 22.3133 97.1217 22.1854 97.6276 22.1338C98.1267 22.0819 98.631 22.1128 99.1201 22.2253C98.6347 22.3533 98.1684 22.4614 97.7148 22.5916C97.2671 22.7193 96.8281 22.8754 96.4004 23.0591C95.5375 23.439 94.7484 23.9681 94.0692 24.6222ZM89.4751 28.3667C89.7072 28.3586 89.9272 28.2607 90.0886 28.0936C90.2499 27.9265 90.3401 27.7032 90.3401 27.4709C90.3401 27.2385 90.2499 27.0152 90.0886 26.8481C89.9272 26.681 89.7072 26.5831 89.4751 26.5751C89.243 26.5831 89.023 26.681 88.8617 26.8481C88.7003 27.0152 88.6101 27.2385 88.6101 27.4709C88.6101 27.7032 88.7003 27.9265 88.8617 28.0936C89.023 28.2607 89.243 28.3586 89.4751 28.3667ZM96.6752 26.6467C96.9073 26.6387 97.1272 26.5408 97.2886 26.3736C97.45 26.2065 97.5402 25.9833 97.5402 25.7509C97.5402 25.5186 97.45 25.2953 97.2886 25.1282C97.1272 24.9611 96.9073 24.8632 96.6752 24.8551C96.443 24.8632 96.2231 24.9611 96.0617 25.1282C95.9004 25.2953 95.8101 25.5186 95.8101 25.7509C95.8101 25.9833 95.9004 26.2065 96.0617 26.3736C96.2231 26.5408 96.443 26.6387 96.6752 26.6467ZM90.7916 31.5288C90.8961 32.2285 91.0264 32.9126 91.4488 33.1508C91.7036 33.2735 91.9836 33.335 92.2663 33.3304C92.5863 33.3238 92.9233 33.3051 93.29 33.3025C93.0046 33.5312 92.675 33.6982 92.3218 33.793C91.9247 33.8982 91.5025 33.8509 91.1384 33.6606C90.9609 33.5441 90.8141 33.3865 90.7104 33.2012C90.6067 33.0158 90.5492 32.8082 90.5428 32.5959C90.5185 32.2235 90.6051 31.8521 90.7916 31.5288ZM99.1201 36.9202C99.0559 37.5449 98.7619 38.1233 98.2951 38.5431C97.8284 38.963 97.2222 39.1942 96.5945 39.1919C95.9348 39.2341 95.2798 39.0559 94.7323 38.6855C94.4374 38.4949 94.1949 38.2335 94.027 37.9251C93.8591 37.6167 93.7711 37.2711 93.771 36.92C93.7709 36.5688 93.8587 36.2232 94.0265 35.9147C94.1943 35.6062 94.4366 35.3447 94.7314 35.154C95.2789 34.7827 95.9344 34.6044 96.5945 34.6472C97.2223 34.6452 97.8285 34.8768 98.2952 35.2968C98.762 35.7169 99.0559 36.2955 99.1201 36.9202ZM99.1201 36.9202C99.1114 36.6164 99.0301 36.319 98.883 36.053C98.736 35.7869 98.5274 35.56 98.2747 35.391C97.7792 35.0612 97.1883 34.9051 96.5945 34.9472C96.3154 34.9133 96.0322 34.9391 95.7637 35.0228C95.4952 35.1065 95.2475 35.2463 95.037 35.4328C94.8265 35.6194 94.658 35.8485 94.5426 36.105C94.4272 36.3615 94.3675 36.6397 94.3675 36.921C94.3675 37.2023 94.4272 37.4804 94.5426 37.7369C94.658 37.9935 94.8265 38.2226 95.037 38.4091C95.2475 38.5957 95.4952 38.7354 95.7637 38.8191C96.0322 38.9028 96.3154 38.9286 96.5945 38.8947C97.1885 38.9367 97.7795 38.7802 98.2749 38.4498C98.5275 38.2807 98.736 38.0537 98.883 37.7876C99.03 37.5215 99.1113 37.2241 99.1201 36.9202ZM60.7107 116.585C62.236 117.061 63.8034 117.389 65.3914 117.565L64.4899 124.289C64.4146 124.863 64.1332 125.39 63.6981 125.771C63.2631 126.152 62.7042 126.362 62.1257 126.362C62.0197 126.362 61.9139 126.354 61.8092 126.338C61.4984 126.297 61.1987 126.195 60.9274 126.038C60.656 125.881 60.4184 125.672 60.2281 125.423C60.0377 125.174 59.8985 124.889 59.8185 124.586C59.7384 124.283 59.719 123.967 59.7614 123.656L60.7107 116.585ZM66.1794 111.712L65.9824 113.157C65.7442 113.038 65.4966 112.938 65.2422 112.859C65.6027 112.519 65.9177 112.133 66.1794 111.712ZM68.1734 96.8178L66.5077 109.264C66.2014 108.682 65.7214 108.21 65.1345 107.914C64.0685 107.438 63.0542 106.854 62.1078 106.17L63.7733 93.7243C65.0718 94.9763 66.556 96.0198 68.1734 96.8178ZM70.2391 81.4279L68.9376 91.1505C68.5197 90.9832 68.251 90.8936 68.251 90.8936C68.251 90.8936 64.8123 89.7112 64.7047 87.6688C64.6975 87.5563 64.6734 87.4456 64.6331 87.3403L65.5107 80.795C65.5514 80.4837 65.6531 80.1835 65.81 79.9116C65.9669 79.6398 66.1759 79.4015 66.425 79.2106C66.6741 79.0196 66.9585 78.8797 67.2617 78.7989C67.565 78.7181 67.8812 78.6979 68.1922 78.7395C68.5033 78.7812 68.8031 78.8838 69.0744 79.0415C69.3457 79.1993 69.5833 79.409 69.7734 79.6588C69.9636 79.9085 70.1026 80.1933 70.1825 80.4969C70.2624 80.8005 70.2816 81.1169 70.2391 81.4279ZM186.174 107.018C189.632 107.018 189.638 101.643 186.174 101.643C182.717 101.643 182.711 107.018 186.174 107.018Z" fill="black"/>
<path d="M177.183 100.525V105.621" stroke="black" stroke-width="0.699" stroke-miterlimit="10"/>
<path d="M166.975 101.25V105.621" stroke="black" stroke-width="0.699" stroke-miterlimit="10"/>
<path d="M43.0149 89.8488L44.4326 91.2876L44.4409 91.296L44.4453 91.3108C45.5397 94.9018 46.8519 98.4228 48.3745 101.854C49.1266 103.571 49.9097 105.273 50.7634 106.94C51.5974 108.616 52.5224 110.243 53.4652 111.857L53.4866 111.893L53.516 111.993C53.7808 112.724 54.2479 113.364 54.8628 113.838C55.5037 114.355 56.2232 114.765 56.9938 115.053C57.7842 115.35 58.5964 115.585 59.4231 115.757C60.2757 115.954 61.1346 116.155 61.9765 116.373C62.8194 116.583 63.6615 116.804 64.4809 116.942C65.2893 117.082 66.1394 117.099 66.3945 116.667C66.573 116.373 66.6787 116.04 66.7027 115.696C66.7565 115.344 66.7337 114.984 66.6358 114.641C66.5351 114.331 66.3399 114.061 66.0776 113.868C65.7616 113.666 65.4213 113.506 65.0649 113.391L64.2395 113.035L64.868 112.442C65.0848 112.233 65.2834 112.007 65.4617 111.765C65.64 111.528 65.7912 111.272 65.9127 111.002C66.033 110.773 66.1016 110.522 66.114 110.264C66.1263 110.006 66.0819 109.749 65.984 109.51L65.9314 109.401V109.27L65.9313 109.264L65.9857 109.508C65.7228 109.039 65.325 108.661 64.8439 108.421L64.9101 108.454C63.1322 107.676 61.5012 106.598 60.0885 105.267C58.5934 103.936 57.5672 102.158 57.162 100.196C56.994 99.2043 57.0258 98.1886 57.2557 97.2089C57.4397 96.222 57.8058 95.278 58.3352 94.425C58.6237 93.9677 59.005 93.5761 59.4545 93.2756C59.904 92.9752 60.4116 92.7726 60.9444 92.6811C61.9925 92.5416 63.0579 92.7347 63.9904 93.2332L64.0421 93.2587L64.1059 93.3204C65.1295 94.3166 66.2697 95.1855 67.5017 95.908C68.6486 96.6763 70.0081 97.064 71.3876 97.0161C72.0327 96.9405 72.6345 96.6531 73.0988 96.1989C73.3324 96.0339 73.503 95.7944 73.5826 95.5196C73.6622 95.2449 73.6461 94.9512 73.5369 94.6869C73.2035 94.1028 72.7368 93.6059 72.1748 93.2367C71.5889 92.8226 70.9711 92.4556 70.3272 92.1391C69.6806 91.8127 69.0172 91.5211 68.3396 91.2654C67.6235 91.0091 66.9408 90.6677 66.3061 90.2484C65.635 89.837 65.0837 89.2566 64.7073 88.5652C64.6191 88.3805 64.5562 88.1848 64.5202 87.9833L64.4792 87.6781L64.4346 87.4587C64.3237 87.1398 64.1465 86.8479 63.915 86.6022C62.867 85.5875 61.7115 84.6901 60.469 83.9259C59.8585 83.5136 59.2517 83.0925 58.6636 82.6452C58.0612 82.2153 57.5258 81.6986 57.0748 81.1118C58.1098 82.1573 59.2944 83.043 60.5898 83.74C61.888 84.4695 63.1015 85.3403 64.2083 86.3366C64.4929 86.6181 64.7135 86.9576 64.8552 87.332L64.9284 87.6523L64.9722 87.893C65.0072 88.0527 65.0637 88.2069 65.14 88.3514C65.5005 88.9439 66.0086 89.4325 66.6147 89.7693C67.2254 90.1393 67.8749 90.4407 68.5516 90.6682C69.2586 90.9155 69.9518 91.2005 70.6284 91.5218C71.3146 91.8392 71.9746 92.2106 72.6021 92.6325C73.2852 93.0619 73.8529 93.6521 74.2554 94.3515C74.46 94.7716 74.5056 95.2516 74.3837 95.7027C74.3318 95.9245 74.2352 96.1335 74.0998 96.3167C73.9889 96.499 73.8508 96.6634 73.6904 96.8042C73.105 97.4007 72.3398 97.7882 71.5127 97.907C69.9294 98.022 68.3507 97.6285 67.0065 96.7837C65.6871 96.0273 64.4654 95.1117 63.369 94.0575L63.4844 94.1445C62.7551 93.7699 61.9291 93.6259 61.1162 93.7318C60.7288 93.8022 60.361 93.9544 60.0371 94.1782C59.7132 94.4021 59.4408 94.6924 59.238 95.03C58.7938 95.7707 58.4896 96.5869 58.3407 97.4377C58.1473 98.2784 58.1252 99.1495 58.2757 99.999C58.6528 101.715 59.5725 103.263 60.8986 104.415C62.2201 105.631 63.7254 106.629 65.3588 107.375L65.4066 107.397L65.4252 107.408C66.1119 107.768 66.6718 108.331 67.0295 109.019L67.0839 109.135V109.27L67.0315 109.03C67.2096 109.426 67.2875 109.86 67.2584 110.293C67.2261 110.699 67.122 111.095 66.951 111.464C66.7931 111.81 66.5972 112.137 66.3668 112.439C66.142 112.74 65.8908 113.02 65.616 113.276L65.4191 112.327C65.8912 112.483 66.3391 112.704 66.7497 112.984C67.1899 113.318 67.5161 113.779 67.6834 114.306C67.8276 114.803 67.8615 115.326 67.7828 115.838C67.7348 116.366 67.5544 116.874 67.2582 117.314C67.0762 117.545 66.8462 117.734 66.5841 117.867C66.322 118 66.0341 118.074 65.7404 118.085C65.2599 118.112 64.7779 118.079 64.3056 117.986C63.4073 117.827 62.5643 117.596 61.7186 117.378C60.8756 117.153 60.0395 116.951 59.1961 116.748C58.3169 116.562 57.4563 116.296 56.6247 115.955C55.7692 115.609 54.9745 115.129 54.271 114.532C53.5115 113.917 52.957 113.086 52.6811 112.148L52.7318 112.285C51.8172 110.63 50.923 108.965 50.1228 107.255C49.307 105.553 48.5445 103.826 47.8504 102.073C47.1536 100.321 46.5114 98.5498 45.9239 96.7591C45.3383 94.9691 44.7817 93.1698 44.3426 91.3373L44.3552 91.3601L43.0149 89.8488ZM166.974 108.308C170.432 108.308 170.438 102.934 166.974 102.934C163.517 102.934 163.511 108.308 166.974 108.308ZM177.183 108.308C180.641 108.308 180.646 102.934 177.183 102.934C173.726 102.934 173.72 108.308 177.183 108.308Z" fill="black"/>
<path d="M103.871 265.288V280.091" stroke="black" stroke-width="0.968" stroke-miterlimit="10"/>
<path d="M130.778 270.209V282.29" stroke="black" stroke-width="0.968" stroke-miterlimit="10"/>
<path d="M135.459 286.493C135.46 282.361 133.988 278.365 131.309 275.221L130.78 274.592V275.246C130.781 277.355 130.182 279.422 129.054 281.204C127.925 282.986 126.313 284.41 124.405 285.31L123.314 285.823C121.728 286.572 119.988 286.935 118.235 286.884C116.482 286.832 114.767 286.366 113.228 285.525L109.648 283.565C107.899 282.606 106.439 281.194 105.422 279.478C104.406 277.761 103.869 275.802 103.869 273.807C101.577 276.828 100.338 280.517 100.339 284.31L98.6851 317.266C98.6867 320.53 99.5972 323.729 101.315 326.504C103.032 329.28 105.488 331.522 108.408 332.979C114.496 335.438 121.301 335.438 127.39 332.979C130.311 331.523 132.769 329.282 134.486 326.506C136.204 323.73 137.113 320.53 137.113 317.266L135.459 286.493ZM121.743 303.852C120.524 303.593 119.273 303.515 118.031 303.62C116.773 303.727 115.528 303.948 114.311 304.282C113.072 304.615 111.852 305.016 110.656 305.481C112.82 303.969 115.338 303.043 117.965 302.793C119.301 302.687 120.645 302.835 121.925 303.232C123.174 303.69 124.282 304.465 125.141 305.481C124.114 304.741 122.963 304.19 121.743 303.852ZM121.743 298.683C120.524 298.421 119.274 298.341 118.031 298.443C116.773 298.548 115.527 298.773 114.311 299.113C113.073 299.447 111.853 299.845 110.656 300.304C111.725 299.55 112.89 298.943 114.121 298.501C115.354 298.028 116.648 297.73 117.965 297.616C119.301 297.508 120.646 297.66 121.925 298.063C123.175 298.515 124.284 299.288 125.141 300.304C124.115 299.564 122.964 299.015 121.743 298.683ZM121.743 293.192C120.524 292.93 119.274 292.849 118.031 292.952C116.773 293.057 115.527 293.281 114.311 293.622C113.073 293.956 111.853 294.354 110.656 294.813C111.725 294.058 112.89 293.452 114.121 293.01C115.354 292.537 116.648 292.239 117.965 292.125C119.301 292.021 120.645 292.173 121.925 292.571C123.175 293.024 124.284 293.797 125.141 294.813C124.115 294.072 122.964 293.523 121.743 293.192Z" fill="black"/>
</svg>
