<svg width="45" height="61" viewBox="0 0 45 61" fill="none" xmlns="http://www.w3.org/2000/svg">
<path d="M1 18.9798C1.2738 19.5317 1.59098 20.0613 2.0006 20.5185C3.08187 21.9018 4.24615 23.2169 5.24894 24.6632C6.22701 25.7096 6.9708 26.9495 7.92075 28.0207C8.56319 28.7135 8.99092 29.5757 9.62255 30.2754C10.5655 31.3049 11.2332 32.56 12.2061 33.5597C12.9196 34.6436 13.6976 35.6746 14.5007 36.6885C15.1076 37.7241 15.963 38.5651 16.5783 39.5938C17.1134 40.4573 17.8261 41.1858 18.3335 42.0698C18.7076 42.6975 19.0951 43.326 19.6577 43.7981C19.1894 44.2423 18.6387 44.5712 18.1176 44.933C16.6824 45.9151 15.3805 47.0818 14.2828 48.4067C12.5992 50.5509 11.4904 53.0307 11.2281 55.3871C11.0777 56.8176 11.4221 58.2306 12.4712 59.0801C13.387 59.8898 14.914 60.3784 16.4934 59.6283C17.8396 58.9342 19.1392 58.0407 20.1722 56.922C21.4544 55.7082 22.404 54.3088 23.0492 52.8733C23.6958 51.4383 24.0106 49.8985 24.0875 48.5077C23.9922 47.0091 23.2699 45.8082 22.565 44.649C21.6451 43.4602 20.8458 42.1692 19.7683 41.1108C18.7993 39.7857 17.7338 38.536 16.7771 37.2016C16.3368 36.5162 15.7106 35.9843 15.2779 35.2942C14.4633 34.0588 13.4167 33.0071 12.5971 31.7748C11.7793 30.7731 10.964 29.766 10.2164 28.7039C9.37375 27.8359 8.76214 26.7667 7.95578 25.8656C7.18631 25.01 6.56563 24.0262 5.83109 23.1411C6.60243 22.2636 7.59017 21.6071 8.32996 20.6964C8.99481 19.9621 9.69502 19.2499 10.4001 18.5492C11.1028 17.8446 11.8059 17.1469 12.4188 16.3313C13.1856 15.4167 14.0842 14.627 14.8314 13.6927C15.9583 12.3619 17.0588 10.9912 18.2466 9.70703C18.9868 8.57471 19.9717 7.61227 20.768 6.51324C21.4032 6.80993 21.7371 7.47098 22.2878 7.87813C23.4883 8.85474 24.4409 10.1075 25.6616 11.0584C26.6958 12.2525 27.949 13.2165 29.0033 14.3906C31.5389 16.8391 34.0355 19.3313 36.4521 21.9029C37.2715 22.6038 37.9209 23.482 38.6574 24.2669C38.419 24.5304 38.1618 24.7743 37.888 24.9955C36.3504 26.2185 35.1437 27.8916 34.1492 29.5826C32.9305 32.1416 32.2418 34.9337 32.5792 37.442C32.8494 39.2146 34.0468 40.6679 35.9337 40.84C36.9687 40.9859 38.2156 40.5123 39.2007 39.6593C41.0937 37.9884 42.4521 35.8887 43.3721 33.7498C43.9612 31.8987 44.1145 30.0378 43.9207 28.3127C43.4397 26.28 41.9743 24.9137 40.6701 23.5268C39.598 22.528 38.5018 21.5579 37.4705 20.5145C36.1953 19.5972 35.2841 18.2758 34.0586 17.2992C32.8184 15.9737 31.4285 14.8087 30.1874 13.4813C29 12.487 28.0297 11.2538 26.8188 10.2869C26.065 9.55406 25.371 8.75544 24.5514 8.09292C23.2966 6.77894 21.924 5.59687 20.6526 4.3006C19.3798 3.20595 18.4171 1.72849 16.856 1.00006C15.7234 1.96589 14.9966 3.29364 14.0125 4.39908C12.6911 5.91172 11.5173 7.45822 10.2246 8.95503C9.54418 9.65093 8.88105 10.3543 8.32552 11.1533C7.0883 12.5443 5.78718 13.7698 4.63756 15.1654C4.06594 15.844 3.33773 16.3174 2.76923 16.9733C2.15254 17.6182 1.45252 18.191 1 18.9798ZM6.53969 19.0874C7.50614 18.1196 8.40057 17.0585 9.39059 16.1055C10.4723 15.1047 11.2861 13.7886 12.4001 12.7843C14.5469 10.2416 16.7957 7.7111 18.8577 4.92535C19.2066 4.91751 19.4481 5.20326 19.742 5.33494C18.9977 6.46797 17.9443 7.37062 17.2401 8.53643C16.2114 9.72184 15.164 10.8964 14.1528 12.1018C13.2439 13.4156 11.9998 14.3919 11.0384 15.6466C9.93749 16.9504 8.72112 18.0891 7.5551 19.3052C6.78669 20.2635 5.81553 21.0156 4.95445 21.8787C4.73839 21.7083 4.53949 21.5174 4.33241 21.3378C4.95184 20.4687 5.84759 19.8841 6.53969 19.0874Z" fill="black" stroke="black" stroke-width="0.0539"/>
</svg>
