<svg width="30" height="69" viewBox="0 0 30 69" fill="none" xmlns="http://www.w3.org/2000/svg">
<path d="M13.0081 0.939219C11.6776 2.19495 10.6645 3.93504 10.0302 5.90623C9.52918 7.45849 9.18451 9.01809 9.0895 10.6723C8.98569 12.3133 9.09125 13.9898 9.38578 15.6127C9.69724 16.8519 9.83233 18.1514 10.4029 19.3095C10.6007 19.9942 10.955 20.6793 10.8563 21.4134C10.7392 21.6599 10.5408 21.8527 10.363 22.0561C8.63491 24.0966 6.8764 26.0613 5.27467 28.2406C3.64078 30.6291 2.09084 33.009 0.978941 35.6323C0.4016 37.0567 0.238884 38.5627 0.22381 40.0474C0.211692 41.0833 0.486387 42.0812 0.671464 43.0885C1.58883 45.995 3.24321 48.7843 6.05847 50.717C8.00644 52.1165 10.5687 52.7275 13.2232 52.8573C13.8682 52.9337 14.5255 52.9172 15.1862 52.8752L16.1791 52.8014C16.5094 52.7627 16.8397 52.7254 17.1693 52.6989C18.1205 52.5441 19.0415 52.2261 19.9771 51.9862C20.2169 52.9105 20.5662 53.8088 20.6542 54.7679C21.1107 56.1999 21.1247 57.7226 21.2365 59.2198C21.148 60.2425 21.1686 61.2781 20.7314 62.2987C20.4273 63.1657 19.8809 64.0277 19.1431 64.7653C18.4066 65.4836 17.4782 66.1001 16.4166 66.5414C14.9257 67.1672 13.1453 67.5742 11.5873 67.2759L11.5167 66.7842C12.4924 66.5272 13.2629 65.9544 14.0488 65.4539C15.2349 64.5992 16.0859 63.4319 16.1355 62.2476C16.0609 61.7186 15.9208 61.1988 15.7519 60.6923C15.1381 59.6251 13.6815 58.9997 12.1775 58.9557C11.2727 58.8506 10.3349 58.9663 9.43961 59.1794C8.54435 59.3879 7.69142 59.748 6.95911 60.2231C5.80607 60.9238 5.21055 62.0591 5.07086 63.1306C4.90278 64.5065 5.26135 65.943 6.43493 66.9455C7.19777 67.6315 8.2389 68.0883 9.39971 68.34C10.5608 68.5844 11.8379 68.6616 13.0735 68.4616C14.6004 68.3601 16.044 67.7743 17.4166 67.2117C19.8421 66.081 21.6607 64.0618 22.3391 62.0062C22.821 60.869 22.7925 59.7134 22.7889 58.5841C22.6817 58.0572 22.6126 57.524 22.5341 56.9933C22.2849 56.2321 22.3521 55.4099 22.0654 54.6575C21.9214 53.5809 21.5878 52.5456 21.2718 51.5098C21.9943 51.179 22.7081 50.8303 23.3808 50.4362C24.0501 50.0097 24.6786 49.5409 25.2327 49.0076C26.8172 47.5869 27.8616 45.8539 28.497 44.0993C29.2108 42.0321 29.3759 39.8157 28.873 37.8187C28.5349 36.9787 28.2978 36.0836 27.7493 35.3453C26.5702 33.5846 24.8023 32.2018 22.6177 31.514C21.248 31.1611 19.8023 31.1611 18.3948 31.2787C17.4045 31.2879 16.3963 31.4215 15.4005 31.5327C14.8092 29.5771 14.1708 27.6343 13.6239 25.6668C14.0476 25.1151 14.4722 24.5626 14.897 24.0094C15.3095 23.4388 15.7087 22.8538 16.0956 22.2722C16.8676 21.105 17.5766 19.9197 18.151 18.6803C18.4209 18.1025 18.6605 17.511 18.8631 16.9092C19.0551 16.289 19.208 15.656 19.3201 15.0202C19.5438 13.7473 19.598 12.4547 19.4456 11.1678C19.3416 10.2767 19.1039 9.40858 18.9081 8.53387C18.5976 7.63929 18.2171 6.7704 17.8411 5.90264C16.9826 4.3682 16.2146 2.75607 15.166 1.37644C14.8931 1.05049 14.6243 0.662151 14.2488 0.532362C13.7829 0.32208 13.3374 0.626425 13.0081 0.939219ZM13.8503 4.77815C14.2246 4.21319 14.5254 3.55209 15.031 3.13268C15.4275 3.42831 15.5687 3.9632 15.8419 4.38197C16.5796 5.9167 17.0725 7.62647 17.0202 9.34062C17.0416 11.345 16.4093 13.1747 15.5804 14.9136C15.1925 15.7101 14.745 16.4806 14.2565 17.2329C13.7676 17.9844 13.2442 18.7314 12.6661 19.4021C12.4732 19.7053 11.8547 19.8393 11.7236 19.4274C11.2592 17.5307 11.1031 15.5488 11.2321 13.6108C11.3676 11.6815 11.7311 9.70517 12.3912 7.93249C12.7649 6.79911 13.2726 5.74722 13.8503 4.77815ZM11.7352 27.8806C12.0204 27.5463 12.2844 27.1972 12.6121 26.9016C12.7936 27.2564 13.0096 27.5983 13.108 27.9891C13.3457 28.8476 13.7041 29.689 13.6901 30.5992C13.7299 30.9793 13.5939 31.369 13.313 31.6658C12.7686 32.2503 12.1393 32.7713 11.5931 33.3661C10.7935 34.2186 10.1877 35.1433 9.4308 36.0138C8.00974 37.6208 7.33364 39.8286 7.91499 41.7522C8.29935 43.5097 9.52854 44.9941 11.056 46.1439C11.8704 46.7081 12.8457 47.273 14.0255 47.1073C14.0005 46.6751 13.5045 46.5255 13.1861 46.2743C12.2177 45.6208 11.7013 44.6464 11.3013 43.6722C11.0748 43.0964 11.1341 42.471 11.0844 41.8656C11.056 40.7299 11.4947 39.5657 12.2481 38.6073C12.9969 37.6205 14.0509 36.8027 15.3116 36.4295L19.3633 50.3159C17.6212 50.9147 15.7836 51.1287 13.9828 51.174C12.4147 51.0723 10.8338 50.8435 9.54433 50.1824C7.18005 49.1526 5.70979 47.0715 4.95223 44.963C4.71119 44.0633 4.54297 43.1485 4.38465 42.233C4.24286 40.7566 4.43625 39.2606 4.8821 37.822C5.32788 36.3787 6.01325 34.9364 6.88719 33.6463C8.23141 31.5081 10.1459 29.8439 11.7352 27.8806ZM20.5612 35.8451C22.0876 36.1473 23.306 37.1152 24.1587 38.2474C25.4243 40.1735 26.0507 42.5198 25.4579 44.8629C24.9346 46.9119 23.0988 48.9438 20.6988 49.7377L16.5773 36.0664C17.2217 35.8419 17.8963 35.7332 18.5735 35.7173C19.2453 35.6822 19.9151 35.7222 20.5612 35.8451Z" fill="black" stroke="black" stroke-width="0.0539"/>
</svg>
