<svg width="33" height="63" viewBox="0 0 33 63" fill="none" xmlns="http://www.w3.org/2000/svg">
<path d="M22.211 4.43105C21.0562 15.3955 19.9017 26.3586 18.7467 37.3267C18.4289 39.8923 18.0492 42.4527 17.8111 45.0233C17.7429 45.5984 17.6888 46.1766 17.5669 46.7439C17.5063 47.0197 17.2266 47.3551 16.9532 47.2499C14.2782 46.2431 11.3048 46.2973 8.55166 47.3462C6.79897 48.1053 5.11155 49.1862 3.6444 50.5651C1.90262 52.1171 0.779988 54.5479 1.03638 56.9274C1.14016 58.5237 1.83314 60.2359 3.3287 61.0098C4.57116 61.6622 5.9254 62.0204 7.32072 61.9991C8.71245 62.0017 10.118 61.7767 11.4408 61.4806C13.1499 60.7124 14.8747 59.8954 16.0899 58.4093C16.8397 57.6888 17.6196 56.9451 17.9693 55.9333C19.0124 53.5324 19.175 50.895 19.4647 48.3297C19.582 46.3125 19.7491 44.2993 19.8254 42.2833C20.1387 38.5066 20.5862 34.7392 20.87 30.9634C21.1834 28.6416 21.1728 26.2904 21.6137 23.9868C21.6933 23.9091 21.8526 23.7536 21.9321 23.6758C23.8095 23.3973 25.7075 24.4945 26.7944 26.4489C27.8564 27.8337 28.3954 29.7353 28.825 31.6119C29.5437 35.2486 29.392 39.2928 27.8509 42.7118C27.4445 43.6657 26.7804 44.4429 26.36 45.3973C26.4189 45.4924 26.5369 45.6821 26.596 45.7771C28.2005 43.9236 29.1689 41.5488 30.1173 39.2678C31.4078 35.9229 32.2803 32.2504 31.9171 28.5628C31.7176 26.4908 31.0662 24.5508 30.3229 22.763C29.6367 21.3217 28.8682 19.9877 28.2226 18.5635C27.8723 17.7571 27.4409 17.055 27.0217 16.3288C26.6031 15.5842 26.1962 14.8379 25.8915 13.9999C24.7856 12.0994 24.1368 9.81203 23.7611 7.45103C23.57 5.69453 23.5767 3.88497 23.5678 2.08856C23.5685 1.54542 23.3343 0.863017 22.9141 1.02397C22.474 2.08171 22.3604 3.28331 22.2112 4.43194M26.8235 21.1936C27.6069 22.1212 28.2829 23.225 28.975 24.3147C29.6391 25.3284 29.8991 26.6798 30.0949 27.9805C30.173 28.4183 30.0575 28.8586 29.9664 29.2795C29.5531 28.5585 29.476 27.6445 29.2129 26.8413C28.772 25.4043 27.9052 24.34 27.1854 23.1977C26.5771 22.2622 25.8787 21.3262 25.0647 20.6858C24.7535 20.4763 24.5284 20.1239 24.3345 19.7524C25.2836 19.6831 26.0442 20.5968 26.8235 21.1936Z" fill="black"/>
<path d="M22.211 4.43105C21.0562 15.3955 19.9017 26.3586 18.7467 37.3267C18.4289 39.8923 18.0492 42.4527 17.8111 45.0233C17.7429 45.5984 17.6888 46.1766 17.5669 46.7439C17.5063 47.0197 17.2266 47.3551 16.9532 47.2499C14.2782 46.2431 11.3048 46.2973 8.55166 47.3462C6.79897 48.1053 5.11155 49.1862 3.6444 50.5651C1.90262 52.1171 0.779987 54.5479 1.03638 56.9274C1.14016 58.5237 1.83314 60.2359 3.3287 61.0098C4.57116 61.6622 5.9254 62.0204 7.32072 61.9991C8.71245 62.0017 10.118 61.7767 11.4408 61.4806C13.1499 60.7124 14.8747 59.8954 16.0899 58.4093C16.8397 57.6888 17.6196 56.9451 17.9693 55.9333C19.0124 53.5324 19.175 50.895 19.4647 48.3297C19.582 46.3125 19.7491 44.2993 19.8254 42.2833C20.1387 38.5066 20.5862 34.7392 20.87 30.9634C21.1834 28.6416 21.1728 26.2904 21.6137 23.9868C21.6933 23.9091 21.8526 23.7536 21.9321 23.6758C23.8095 23.3973 25.7075 24.4945 26.7944 26.4489C27.8564 27.8337 28.3954 29.7353 28.825 31.6119C29.5437 35.2486 29.392 39.2928 27.8509 42.7118C27.4445 43.6657 26.7804 44.4429 26.36 45.3973C26.4189 45.4924 26.5369 45.6821 26.596 45.7771C28.2005 43.9236 29.1689 41.5488 30.1173 39.2678C31.4078 35.9229 32.2803 32.2504 31.9171 28.5628C31.7176 26.4908 31.0662 24.5508 30.3229 22.763C29.6367 21.3217 28.8682 19.9877 28.2226 18.5635C27.8723 17.7571 27.4409 17.055 27.0217 16.3288C26.6031 15.5842 26.1962 14.8379 25.8915 13.9999C24.7856 12.0994 24.1368 9.81203 23.7611 7.45103C23.57 5.69453 23.5767 3.88497 23.5678 2.08856C23.5685 1.54542 23.3343 0.863019 22.9141 1.02398C22.474 2.08171 22.3604 3.28331 22.2112 4.43194M26.8235 21.1936C27.6069 22.1212 28.2829 23.225 28.975 24.3147C29.6391 25.3284 29.8991 26.6798 30.0949 27.9805C30.173 28.4183 30.0575 28.8586 29.9664 29.2795C29.5531 28.5585 29.476 27.6445 29.2129 26.8413C28.772 25.4042 27.9052 24.34 27.1854 23.1977C26.5771 22.2622 25.8787 21.3262 25.0647 20.6858C24.7535 20.4763 24.5284 20.1239 24.3345 19.7524C25.2836 19.6831 26.0442 20.5968 26.8235 21.1936Z" stroke="black" stroke-width="0.0539"/>
</svg>
